<?xml version="1.0" standalone="no"?>
<!DOCTYPE svg PUBLIC "-//W3C//DTD SVG 20010904//EN"
 "http://www.w3.org/TR/2001/REC-SVG-20010904/DTD/svg10.dtd">
<svg version="1.0" xmlns="http://www.w3.org/2000/svg"
 width="2000.000000pt" height="2000.000000pt" viewBox="0 0 2000.000000 2000.000000"
 preserveAspectRatio="xMidYMid meet">
<metadata>
Created by potrace 1.11, written by Peter Selinger 2001-2013
</metadata>
<g transform="translate(0.000000,2000.000000) scale(0.100000,-0.100000)"
fill="#000000" stroke="none">
<path d="M4980 15435 c0 -9 9 -25 20 -37 24 -26 25 -21 4 20 -17 35 -24 40
-24 17z"/>
<path d="M5232 15339 c2 -6 8 -10 13 -10 5 0 11 4 13 10 2 6 -4 11 -13 11 -9
0 -15 -5 -13 -11z"/>
<path d="M5272 15296 c2 -15 8 -26 13 -26 15 0 12 43 -3 48 -10 3 -13 -4 -10
-22z"/>
<path d="M5007 15248 c-7 -25 -1 -38 18 -38 7 0 16 -6 18 -12 4 -10 8 -9 16 2
17 24 13 39 -18 54 -27 15 -29 14 -34 -6z"/>
<path d="M5181 14884 c0 -11 3 -14 6 -6 3 7 2 16 -1 19 -3 4 -6 -2 -5 -13z"/>
<path d="M5181 14848 c1 -7 5 -24 9 -38 7 -22 8 -21 9 13 1 20 -3 37 -9 37 -5
0 -10 -6 -9 -12z"/>
<path d="M5179 14753 c-1 -5 -1 -12 0 -17 1 -5 4 -27 7 -50 6 -45 35 -99 42
-78 2 7 -3 35 -12 62 -9 27 -16 58 -16 69 0 19 -18 31 -21 14z"/>
<path d="M6179 14428 c-15 -13 -35 -72 -58 -173 -7 -27 -18 -72 -26 -100 -42
-144 -75 -278 -71 -282 2 -3 31 9 63 25 33 18 82 34 114 37 51 6 57 9 73 43
10 21 25 49 33 64 7 15 20 60 28 100 7 41 21 87 29 103 9 17 16 36 16 43 0 7
7 15 15 18 11 5 14 17 11 43 -2 20 0 44 5 54 8 14 5 19 -16 27 -38 15 -198 13
-216 -2z"/>
<path d="M6604 14433 c-17 -3 -28 -23 -53 -96 -17 -51 -40 -114 -50 -142 -92
-242 -114 -303 -113 -325 1 -48 17 -113 28 -117 13 -4 38 44 70 135 12 35 24
66 28 69 3 4 6 16 6 28 0 12 9 32 20 45 20 23 40 79 40 112 0 29 37 115 74
170 35 54 59 117 39 105 -6 -4 -16 0 -23 8 -12 15 -25 16 -66 8z"/>
<path d="M6946 14430 l-109 -5 -32 -90 c-80 -222 -100 -269 -171 -413 -44 -91
-73 -161 -69 -171 5 -16 -8 -51 -36 -103 -5 -10 -9 -24 -9 -32 0 -8 -18 -37
-40 -65 -42 -53 -50 -81 -25 -81 13 0 105 173 105 198 0 5 9 17 20 27 12 10
18 25 16 32 -3 7 -1 15 4 18 6 4 10 -3 10 -14 0 -32 18 -25 37 14 33 69 58 40
34 -39 -6 -17 -19 -67 -30 -111 -11 -44 -23 -89 -27 -100 -7 -18 -6 -19 9 -6
26 20 30 9 13 -35 -8 -22 -20 -59 -26 -83 -10 -39 -45 -125 -71 -173 -5 -10
-9 -29 -9 -44 0 -14 -12 -56 -27 -92 -23 -59 -26 -79 -25 -170 2 -125 -11
-167 -123 -395 l-78 -157 12 -72 c6 -39 14 -75 17 -80 8 -13 21 -9 28 10 3 9
20 40 36 67 17 28 33 57 36 65 3 8 17 47 31 85 26 73 59 146 93 205 11 19 20
49 20 67 0 19 10 43 25 61 14 17 25 35 25 42 0 6 9 32 19 58 10 26 25 73 32
105 7 32 16 60 21 63 4 3 8 16 8 30 0 13 4 24 9 24 16 0 22 90 7 106 -12 11
-16 9 -30 -20 -8 -18 -18 -59 -22 -92 -4 -32 -15 -77 -25 -98 -10 -22 -22 -55
-25 -75 -4 -20 -15 -53 -25 -74 -10 -21 -21 -52 -24 -70 -4 -18 -12 -39 -19
-47 -11 -15 -27 -42 -45 -77 -5 -10 -15 -38 -21 -63 -7 -25 -14 -51 -16 -57
-3 -11 -34 -20 -34 -10 0 1 12 34 26 72 15 39 33 90 42 115 8 25 30 86 48 135
34 89 56 166 68 237 4 20 13 39 21 42 8 3 15 16 15 29 0 14 8 46 18 73 30 79
62 178 62 192 0 7 14 44 32 83 36 80 60 80 28 -1 -22 -56 -19 -104 5 -79 14
15 38 84 110 314 68 220 115 362 142 435 58 153 67 178 91 228 13 29 22 55 19
58 -8 8 -84 9 -201 4z m-293 -610 c-5 -19 -23 -29 -23 -12 0 7 20 32 26 32 1
0 0 -9 -3 -20z m37 -235 c0 -8 -4 -15 -10 -15 -5 0 -7 7 -4 15 4 8 8 15 10 15
2 0 4 -7 4 -15z"/>
<path d="M9047 14429 c-36 -5 -70 -18 -91 -34 -18 -14 -45 -25 -59 -25 -22 0
-27 5 -27 26 l0 25 -30 -21 c-33 -23 -38 -47 -15 -64 13 -9 10 -16 -19 -48
-19 -20 -33 -45 -32 -55 1 -12 -6 -18 -22 -18 -26 -1 -62 -29 -62 -50 0 -8 -4
-15 -10 -15 -5 0 -10 -11 -10 -24 0 -30 -16 -42 -35 -26 -13 11 -14 8 -9 -19
5 -22 3 -31 -6 -31 -24 0 -87 -35 -104 -57 -15 -20 -15 -23 -1 -23 21 0 19
-39 -2 -47 -21 -8 -58 -45 -66 -67 -4 -9 -16 -16 -29 -16 -12 0 -39 -12 -60
-26 -21 -15 -57 -29 -84 -32 -36 -4 -47 -10 -54 -28 -10 -26 -43 -50 -83 -59
-34 -9 -41 -19 -33 -51 5 -17 13 -24 31 -24 14 0 25 5 25 10 0 6 5 10 12 10 6
0 27 12 47 27 49 38 101 63 128 63 15 0 27 8 32 23 5 12 21 31 36 42 14 11 51
44 82 73 30 28 59 52 65 52 11 0 111 80 218 174 8 7 26 19 40 26 14 7 29 19
33 26 4 8 16 14 26 14 10 0 33 15 52 34 50 49 195 164 251 198 26 16 46 34 42
39 -6 11 -96 10 -177 -2z"/>
<path d="M9325 14428 c-16 -6 -61 -32 -98 -57 -37 -25 -92 -59 -121 -76 -65
-37 -107 -69 -154 -119 -20 -21 -52 -52 -71 -70 -18 -17 -61 -65 -94 -106 -34
-41 -80 -94 -102 -116 -156 -158 -283 -339 -386 -549 -35 -72 -69 -144 -76
-160 -94 -231 -122 -295 -196 -440 -33 -66 -76 -154 -96 -195 -68 -143 -302
-605 -315 -620 -7 -8 -30 -46 -50 -85 -81 -150 -326 -410 -498 -527 -32 -21
-58 -43 -58 -48 0 -21 31 -8 87 37 32 26 67 55 77 63 11 8 35 29 55 46 20 17
47 39 61 50 104 78 260 273 345 429 21 39 48 84 60 100 51 70 179 333 240 490
12 33 36 85 52 115 16 30 39 80 52 110 13 30 54 118 91 195 90 185 120 252
164 363 56 140 179 331 313 483 32 36 92 105 133 153 109 127 324 312 460 395
30 18 99 56 153 83 53 27 97 53 97 59 0 12 -87 10 -125 -3z"/>
<path d="M10300 14426 c0 -8 4 -17 9 -20 5 -4 54 -66 109 -139 55 -72 109
-141 119 -152 61 -68 206 -239 246 -292 92 -121 220 -343 321 -558 83 -178
135 -265 211 -355 71 -85 125 -170 125 -197 0 -8 11 -24 25 -35 38 -30 137
-78 162 -78 12 0 46 -6 75 -13 58 -14 117 -13 192 3 35 7 53 7 62 -1 10 -8 18
-7 29 5 16 16 38 20 83 16 13 -1 33 5 45 13 12 8 38 17 57 20 76 12 111 31
148 81 35 48 36 50 33 136 -1 50 -13 131 -27 191 -14 57 -34 145 -45 194 -11
50 -33 125 -49 168 -32 83 -36 102 -21 92 16 -9 87 -170 116 -265 10 -30 24
-70 31 -88 8 -18 14 -39 14 -46 0 -8 11 -47 25 -88 14 -40 25 -82 25 -93 0
-11 6 -32 14 -46 20 -39 44 -127 51 -187 6 -54 -2 -79 -36 -113 -10 -10 -19
-23 -19 -29 0 -5 -9 -10 -20 -10 -12 0 -24 -10 -29 -24 -5 -13 -18 -26 -27
-30 -16 -6 -16 -8 -4 -17 12 -7 13 -11 2 -18 -11 -7 -11 -9 2 -14 35 -14 53
11 47 61 -1 6 5 12 13 12 9 0 13 -6 10 -14 -3 -8 -1 -17 5 -21 6 -3 11 -15 11
-26 0 -20 4 -20 88 -14 48 4 90 13 94 19 4 6 8 44 8 85 0 81 -26 168 -79 263
-16 29 -32 64 -36 78 l-6 25 20 -25 c32 -39 101 -158 101 -173 0 -8 11 -34 24
-59 57 -108 70 -215 32 -261 l-23 -29 -236 -4 c-158 -2 -261 -9 -309 -19 -40
-8 -88 -12 -105 -9 -27 5 -42 0 -84 -30 -116 -84 -268 -146 -357 -146 -26 0
-83 -9 -127 -20 -135 -33 -179 -26 -316 55 -33 19 -62 35 -64 35 -3 0 -16 -17
-29 -39 -24 -37 -25 -38 -70 -31 -68 10 -88 29 -142 135 -35 69 -114 293 -114
325 0 9 -18 71 -40 139 -22 67 -40 137 -40 155 0 17 -4 36 -8 41 -5 6 -17 33
-26 60 -10 28 -28 66 -40 85 -13 19 -37 71 -55 115 -46 111 -149 314 -215 423
-31 50 -56 94 -56 97 0 18 -114 159 -192 237 -114 114 -150 129 -333 135 -102
3 -129 1 -179 -17 -33 -11 -66 -20 -74 -20 -7 0 -60 -18 -115 -41 -111 -44
-209 -112 -331 -229 -67 -64 -221 -248 -302 -360 -76 -104 -214 -340 -214
-364 0 -3 -21 -50 -46 -103 -25 -54 -52 -114 -59 -133 -7 -19 -40 -102 -75
-185 -34 -82 -74 -188 -90 -235 -117 -354 -134 -395 -222 -527 -81 -122 -97
-154 -179 -367 -10 -27 -22 -52 -27 -55 -4 -3 -16 -23 -25 -43 -9 -20 -21 -38
-26 -40 -5 -2 -36 -37 -69 -79 -33 -42 -89 -104 -123 -138 -35 -33 -60 -63
-57 -67 4 -3 15 2 25 11 10 9 39 33 64 53 71 56 202 227 215 278 3 13 12 24
19 24 18 0 45 34 45 56 0 11 5 25 11 31 6 6 26 47 44 91 37 90 88 171 140 221
19 19 35 39 35 46 0 7 8 23 19 36 10 13 23 38 29 54 l12 30 -4 -30 c-9 -60
-31 -120 -54 -143 -12 -13 -20 -27 -17 -32 3 -4 -2 -10 -10 -14 -8 -3 -15 -12
-15 -21 0 -8 -3 -15 -7 -15 -14 0 -95 -149 -90 -164 3 -6 -2 -19 -11 -29 -18
-20 -36 -50 -57 -94 -8 -18 -19 -33 -24 -33 -5 0 -14 -14 -21 -31 -8 -17 -21
-39 -31 -48 -9 -9 -24 -32 -32 -52 l-15 -36 24 11 c13 6 24 16 24 22 0 5 8 19
18 30 40 43 120 171 126 203 3 18 17 42 31 53 14 11 25 25 24 31 -3 27 3 36
34 54 26 16 35 32 50 84 10 35 26 72 34 82 9 9 13 17 9 17 -4 0 9 33 29 73 65
128 95 205 95 241 0 14 6 31 13 38 7 7 19 29 26 48 25 66 114 278 136 320 7
14 16 39 19 57 4 17 14 37 21 43 8 6 19 28 26 48 6 20 19 48 28 62 9 14 29 54
45 90 16 36 45 101 66 145 21 44 43 94 50 112 6 17 18 34 26 37 8 3 14 14 14
25 0 11 4 22 9 25 5 3 27 37 50 75 46 78 48 81 201 239 59 61 116 112 125 112
9 0 28 14 43 31 26 32 98 69 132 69 10 0 26 -7 35 -16 8 -9 22 -13 30 -10 8 3
15 1 15 -4 0 -6 -8 -10 -18 -10 -10 0 -25 -9 -35 -20 -10 -12 -23 -18 -29 -14
-7 4 -1 12 16 21 34 18 33 23 -7 23 -48 0 -95 -46 -98 -97 -2 -21 1 -44 5 -51
5 -8 0 -12 -15 -12 -17 0 -19 3 -10 14 10 12 6 15 -18 21 -17 3 -36 3 -43 -2
-7 -4 -17 -8 -23 -8 -5 0 -14 -18 -20 -40 -7 -25 -20 -44 -34 -50 -14 -7 -20
-16 -17 -28 2 -11 -2 -21 -11 -24 -21 -8 -82 -75 -83 -90 0 -6 -6 -14 -12 -16
-10 -4 -9 -8 2 -16 11 -8 21 -3 42 19 31 35 48 38 48 10 0 -18 11 -25 34 -21
5 1 6 -5 2 -14 -3 -9 -6 -20 -6 -24 0 -14 -109 -121 -124 -121 -8 0 -20 8 -25
18 -9 15 -10 14 -11 -8 -1 -38 -11 -70 -21 -64 -5 3 -9 14 -9 25 0 10 -5 19
-10 19 -17 0 -28 -42 -25 -92 3 -35 -1 -54 -15 -70 -19 -23 -19 -23 -35 -3 -9
11 -21 33 -27 48 -8 22 -13 26 -19 15 -9 -13 -9 -92 -1 -83 6 5 42 -40 42 -52
-1 -4 -9 2 -19 14 -22 26 -33 20 -25 -13 4 -17 2 -24 -9 -24 -20 0 -47 -43
-47 -74 0 -18 4 -24 15 -20 20 8 19 -24 0 -50 -8 -11 -15 -30 -15 -42 0 -12
-7 -24 -15 -28 -8 -3 -15 -12 -15 -21 0 -9 -18 -50 -40 -91 -23 -41 -38 -79
-35 -83 6 -10 -44 -111 -55 -111 -4 0 -10 -8 -12 -18 -4 -13 1 -18 15 -19 25
-2 42 15 67 69 21 45 32 64 118 203 28 47 52 90 52 96 0 6 25 38 55 71 31 33
67 82 80 109 33 63 208 242 259 263 25 10 51 14 72 10 27 -5 46 1 90 26 50 28
63 31 108 26 28 -4 69 -8 91 -9 37 -3 115 -43 130 -67 3 -5 28 -10 54 -10 33
0 56 -6 74 -20 14 -11 31 -20 39 -20 7 0 26 -13 41 -30 16 -16 36 -30 44 -30
21 0 201 -166 225 -207 11 -17 34 -41 53 -52 21 -12 44 -40 61 -73 15 -29 39
-71 54 -93 15 -22 46 -74 69 -115 24 -41 53 -90 67 -109 13 -19 29 -52 35 -75
6 -23 26 -70 46 -106 19 -36 54 -122 79 -192 49 -139 63 -173 98 -233 13 -22
39 -67 58 -100 19 -33 68 -94 109 -135 41 -41 88 -92 103 -112 17 -23 50 -48
84 -64 31 -15 72 -37 92 -50 71 -46 227 -77 238 -46 2 6 9 12 16 12 6 0 26 19
44 42 26 34 32 51 32 91 0 56 13 77 103 166 31 32 57 65 57 75 0 9 11 22 25
28 14 6 25 15 25 20 0 11 144 155 215 215 33 27 83 63 110 78 28 16 57 34 65
41 26 21 104 61 133 68 52 12 27 -12 -50 -48 -43 -21 -94 -52 -113 -70 -19
-18 -56 -49 -82 -70 -27 -20 -48 -43 -48 -50 0 -6 -13 -27 -30 -46 -16 -19
-29 -41 -30 -47 0 -17 -84 -140 -125 -183 -64 -67 -95 -129 -95 -187 0 -52
-24 -133 -40 -133 -4 0 -17 -15 -28 -34 -16 -27 -30 -36 -73 -46 -30 -7 -59
-20 -65 -28 -7 -10 -16 -12 -25 -6 -8 5 -43 9 -79 10 -96 2 -100 3 -100 19 0
11 -7 13 -29 9 -16 -3 -32 -1 -35 5 -4 5 -13 8 -22 4 -19 -7 1 -33 25 -33 10
0 42 -15 73 -33 99 -60 268 -66 328 -12 14 12 43 34 65 47 47 29 61 45 67 73
2 14 10 19 26 17 17 -3 22 2 22 18 0 12 5 30 10 40 7 14 6 21 -4 27 -8 5 -16
35 -20 73 -7 63 -6 66 25 100 29 32 140 176 247 322 24 32 48 58 53 58 5 0 30
21 54 48 24 26 61 55 82 66 21 10 54 27 74 37 34 18 149 38 149 26 0 -3 -25
-13 -55 -21 -29 -9 -71 -26 -91 -39 -47 -28 -99 -83 -99 -105 0 -10 -9 -18
-22 -20 -19 -3 -23 -10 -23 -39 0 -32 -7 -45 -60 -110 -6 -7 -10 -19 -10 -26
0 -19 -26 -40 -39 -33 -16 10 -46 -43 -32 -57 6 -6 11 -18 11 -26 -1 -13 -3
-13 -14 2 -9 11 -17 14 -21 8 -11 -19 7 -80 31 -107 24 -25 24 -26 5 -31 -19
-5 -19 -7 -4 -29 15 -23 14 -24 -7 -24 -20 0 -22 -4 -16 -34 5 -24 2 -37 -9
-46 -8 -7 -15 -17 -15 -23 0 -6 -15 -24 -33 -41 -18 -17 -45 -57 -61 -88 -15
-31 -40 -65 -54 -74 -15 -10 -43 -33 -63 -53 -20 -20 -56 -46 -80 -59 -29 -15
-35 -22 -19 -18 14 2 43 8 65 12 32 6 55 23 122 91 46 46 90 98 99 116 9 18
42 66 74 107 47 62 58 84 64 129 4 30 14 67 22 82 19 38 18 63 -5 83 -35 32
-32 52 16 101 25 25 58 72 73 103 21 45 43 70 96 112 76 60 151 103 166 94 5
-3 39 -8 76 -10 50 -3 75 -10 102 -29 20 -14 48 -25 61 -25 38 0 63 -32 56
-70 -9 -41 19 -96 55 -111 43 -17 102 -1 106 29 4 27 32 30 32 2 0 -11 -5 -20
-11 -20 -5 0 -7 -5 -3 -11 5 -8 8 -8 14 0 11 19 33 4 65 -44 17 -24 36 -45 43
-45 7 0 32 -10 55 -22 23 -12 49 -25 58 -29 9 -4 42 -5 73 -2 86 9 90 18 90
181 0 128 -1 141 -27 196 -15 32 -27 65 -27 73 0 17 -54 126 -72 144 -26 26
-133 224 -161 295 -27 70 -46 99 -177 263 -36 45 -75 96 -88 113 -12 18 -52
61 -89 97 -36 36 -91 98 -122 136 -31 39 -61 75 -67 80 -12 11 -49 75 -95 163
-16 29 -38 65 -49 79 -11 14 -20 33 -20 43 0 9 -12 34 -26 55 -14 21 -41 68
-60 104 -18 36 -45 80 -59 96 l-25 30 20 -55 c12 -30 32 -77 46 -103 14 -27
24 -56 22 -65 -4 -16 -68 97 -68 119 0 5 -11 27 -25 47 -29 43 -32 38 -9 -15
29 -65 67 -174 90 -256 7 -27 21 -63 29 -80 17 -32 28 -93 45 -239 5 -42 16
-91 25 -109 13 -24 16 -53 13 -125 -4 -114 -17 -135 -113 -183 -65 -33 -76
-35 -199 -40 -72 -3 -174 -5 -227 -5 -94 -1 -96 0 -165 41 -50 31 -77 55 -98
90 -16 27 -38 57 -48 69 -29 32 -137 242 -160 309 -11 33 -25 67 -32 75 -7 8
-18 28 -24 43 -23 53 -77 127 -89 123 -19 -8 -60 49 -113 158 -60 123 -59 122
-140 221 -60 72 -108 133 -195 245 -56 71 -90 113 -123 149 -25 27 -32 42 -28
62 6 32 -2 43 -21 28 -17 -15 -38 2 -59 46 -8 18 -30 48 -48 69 -27 29 -41 36
-70 36 -25 0 -36 -5 -36 -14z m-1120 -591 c-7 -9 -15 -13 -18 -10 -3 2 1 11 8
20 7 9 15 13 18 10 3 -2 -1 -11 -8 -20z m321 -19 c5 3 9 0 9 -5 0 -14 -26 -14
-50 -1 -15 8 -21 6 -29 -7 -9 -16 -10 -16 -11 -1 0 21 19 27 48 16 13 -4 28
-6 33 -2z m-366 -12 c-9 -9 -19 -13 -23 -10 -3 4 0 11 8 16 24 15 33 11 15 -6z
m450 -26 c36 17 42 15 49 -10 5 -22 6 -22 20 -3 10 14 18 17 26 9 7 -7 5 -15
-9 -28 -15 -14 -23 -15 -40 -6 -25 13 -91 4 -106 -15 -6 -7 -24 -15 -40 -17
-28 -3 -30 0 -33 31 -3 30 -1 33 17 28 14 -3 25 3 37 21 l17 25 17 -23 c16
-21 21 -23 45 -12z m-535 -52 c0 -2 -12 -12 -27 -21 l-28 -18 19 21 c17 20 36
29 36 18z m-90 -79 c0 -2 -10 -12 -22 -23 l-23 -19 19 23 c18 21 26 27 26 19z
m1015 -7 c4 -6 -5 -10 -19 -10 -14 0 -26 5 -26 10 0 6 9 10 19 10 11 0 23 -4
26 -10z m-51 -45 c3 -8 1 -15 -4 -15 -6 0 -10 7 -10 15 0 8 2 15 4 15 2 0 6
-7 10 -15z m23 -57 c-3 -7 -5 -2 -5 12 0 14 2 19 5 13 2 -7 2 -19 0 -25z
m-194 7 c1 -5 -6 -11 -15 -13 -11 -2 -18 3 -18 13 0 17 30 18 33 0z m-940 -77
c-43 -70 -86 -128 -94 -128 -13 0 9 36 58 98 32 40 53 57 36 30z m377 -67 c0
-5 -11 -11 -25 -13 -20 -4 -23 -3 -14 8 13 16 39 19 39 5z m-122 -46 c-3 -3
-9 2 -12 12 -6 14 -5 15 5 6 7 -7 10 -15 7 -18z m-387 -99 c-12 -12 -21 -27
-21 -33 0 -5 -12 -28 -28 -49 -15 -21 -33 -52 -40 -68 -7 -16 -15 -26 -18 -24
-7 8 39 102 82 163 21 31 40 51 42 45 2 -6 -5 -22 -17 -34z m1465 -7 c7 -12
-12 -29 -34 -29 -10 0 -10 5 -2 20 12 22 25 26 36 9z m44 -43 c0 -18 -16 -29
-30 -21 -13 8 -1 35 16 35 8 0 14 -6 14 -14z m100 -56 c0 -5 -4 -10 -10 -10
-5 0 -10 5 -10 10 0 6 5 10 10 10 6 0 10 -4 10 -10z m-1743 -142 c-23 -50 -39
-63 -30 -25 6 24 43 80 49 75 2 -2 -7 -25 -19 -50z m1753 26 c0 -8 -4 -14 -10
-14 -5 0 -10 9 -10 21 0 11 5 17 10 14 6 -3 10 -13 10 -21z m2190 -90 c0 -8
-4 -12 -10 -9 -5 3 -10 10 -10 16 0 5 5 9 10 9 6 0 10 -7 10 -16z m-4010 -75
c-18 -28 -20 -29 -14 -9 15 53 27 76 31 59 2 -9 -6 -32 -17 -50z m-44 -113
c-11 -25 -22 -43 -24 -41 -7 7 30 95 38 90 4 -2 -2 -24 -14 -49z m-89 -208
c-3 -8 -6 -5 -6 6 -1 11 2 17 5 13 3 -3 4 -12 1 -19z m-61 -165 c-10 -10 -19
5 -10 18 6 11 8 11 12 0 2 -7 1 -15 -2 -18z m2252 -43 c-11 -18 -10 -23 11
-39 16 -12 22 -24 18 -35 -9 -23 -22 -20 -41 9 -19 29 -21 56 -4 73 19 19 29
14 16 -8z m-2312 -117 c-10 -10 -19 5 -10 18 6 11 8 11 12 0 2 -7 1 -15 -2
-18z m-26 -58 c0 -8 -4 -15 -10 -15 -5 0 -7 7 -4 15 4 8 8 15 10 15 2 0 4 -7
4 -15z m4418 -71 c13 -4 22 -13 20 -23 -1 -9 1 -22 5 -28 12 -19 -44 -17 -69
2 -10 8 -30 15 -44 15 -14 0 -32 5 -40 10 -11 7 -4 9 24 7 24 -1 41 3 43 11 3
6 -2 12 -11 12 -9 0 -16 4 -16 9 0 8 28 4 88 -15z m-1968 -26 c0 -12 10 -32
21 -44 14 -15 22 -38 23 -67 3 -53 47 -134 82 -147 13 -5 24 -14 24 -20 0 -5
9 -10 20 -10 11 0 20 4 20 10 0 23 37 28 97 13 57 -14 64 -14 98 3 21 10 45
30 54 45 13 22 25 29 64 34 37 5 53 3 64 -7 12 -13 21 -13 69 -1 60 16 74 12
54 -12 -10 -12 -10 -18 0 -30 17 -21 33 -14 40 16 l6 24 15 -30 c9 -16 14 -38
12 -47 -3 -10 0 -18 6 -18 6 0 11 -4 11 -9 0 -4 -10 -6 -23 -4 -14 3 -29 -2
-36 -11 -8 -9 -20 -16 -27 -16 -8 0 -17 -12 -20 -27 -5 -20 -2 -30 14 -44 27
-22 28 -33 2 -26 -25 7 -34 -7 -15 -23 19 -16 19 -32 -2 -69 -19 -32 -43 -42
-43 -17 0 24 -20 29 -40 11 -14 -13 -17 -22 -10 -35 12 -22 -23 -53 -51 -45
-13 4 -28 0 -40 -11 -15 -13 -22 -15 -31 -6 -7 7 -20 12 -30 12 -10 0 -18 4
-18 10 0 5 -12 13 -27 16 -16 4 -38 14 -50 21 -12 8 -30 16 -40 18 -10 2 -20
4 -22 4 -2 1 2 8 9 16 7 8 17 12 23 8 6 -3 7 -1 3 5 -4 7 -18 12 -31 12 -33 0
-55 10 -55 25 0 7 -12 22 -27 33 -20 15 -27 29 -28 53 0 27 -4 35 -22 37 -27
4 -39 33 -18 44 8 5 12 14 9 20 -5 7 -12 5 -20 -7 -8 -10 -15 -17 -17 -14 -1
2 -14 20 -28 39 -15 19 -32 53 -40 75 -7 22 -18 47 -25 55 -17 22 -44 109 -39
125 3 8 7 22 10 31 7 21 25 8 25 -18z m-2484 -16 c-8 -9 -19 -13 -22 -9 -4 4
1 15 12 26 23 22 33 6 10 -17z m4963 -39 c8 -41 8 -59 1 -61 -6 -2 -15 -15
-21 -29 -5 -13 -13 -22 -19 -18 -5 3 -7 12 -3 20 3 8 0 15 -6 15 -6 0 -16 -11
-21 -25 -11 -28 -22 -31 -40 -11 -6 8 -17 13 -25 10 -7 -3 -16 -1 -20 5 -3 6
-17 11 -30 11 -13 0 -37 11 -52 25 l-28 24 31 -8 c17 -5 43 -16 57 -26 15 -9
40 -15 59 -13 26 2 37 11 55 43 13 22 23 52 23 68 0 51 27 30 39 -30z m-2109
-25 c-13 -5 -31 -7 -39 -5 -10 3 -8 5 6 6 12 0 25 6 28 11 4 6 11 7 17 4 7 -5
2 -11 -12 -16z m2176 -151 c-24 -51 -74 -87 -122 -87 -46 0 -174 86 -174 117
0 17 45 -2 81 -35 21 -18 39 -24 84 -25 55 -1 59 0 96 41 30 32 39 50 40 79
l1 38 8 -40 c6 -31 3 -50 -14 -88z m-1559 77 c-3 -3 -12 -4 -19 -1 -8 3 -5 6
6 6 11 1 17 -2 13 -5z m-232 -193 c-8 -13 -35 -15 -35 -2 0 5 8 11 18 13 21 5
26 2 17 -11z m585 -167 c0 -8 -7 -14 -15 -14 -10 0 -15 10 -15 26 0 22 2 25
15 14 8 -7 15 -19 15 -26z"/>
<path d="M10847 11773 c-14 -13 -6 -34 19 -58 15 -14 33 -25 40 -25 17 0 6 40
-19 68 -22 23 -29 26 -40 15z"/>
<path d="M10940 11676 c0 -3 13 -14 29 -25 l29 -21 -11 25 c-7 14 -20 25 -29
25 -10 0 -18 -2 -18 -4z"/>
<path d="M11040 11627 c0 -41 12 -48 82 -46 25 1 50 -1 57 -5 6 -4 18 -2 26 4
17 14 20 50 5 50 -5 0 -10 -6 -10 -13 0 -18 -75 -20 -90 -1 -7 8 -17 14 -23
14 -6 0 -19 7 -29 17 -17 15 -18 14 -18 -20z"/>
<path d="M11020 11520 c0 -5 5 -10 10 -10 6 0 10 5 10 10 0 6 -4 10 -10 10 -5
0 -10 -4 -10 -10z"/>
<path d="M11170 11500 c0 -5 5 -10 10 -10 6 0 10 5 10 10 0 6 -4 10 -10 10 -5
0 -10 -4 -10 -10z"/>
<path d="M11833 14423 c-6 -16 32 -143 67 -218 15 -33 35 -85 45 -115 10 -30
20 -62 23 -70 3 -8 -4 -4 -16 10 -20 24 -21 24 -22 4 0 -11 4 -24 8 -30 4 -5
19 -36 32 -69 24 -62 80 -164 91 -165 3 0 4 15 2 33 -4 30 -3 31 11 13 22 -28
32 -12 12 19 -18 27 -32 32 -39 13 -4 -8 -6 -7 -6 4 -1 9 4 18 10 20 7 2 0 25
-20 59 -30 54 -42 107 -21 94 6 -4 21 -28 34 -53 75 -153 290 -472 317 -472 5
0 100 -91 213 -202 272 -269 415 -401 478 -441 15 -9 62 -58 105 -109 43 -51
99 -115 124 -142 25 -28 49 -63 53 -78 3 -16 22 -38 42 -52 32 -21 104 -123
104 -145 0 -5 7 -14 15 -21 14 -12 105 -192 105 -209 0 -5 7 -14 15 -21 15
-13 65 -112 69 -136 1 -7 7 -18 13 -25 6 -8 14 -24 18 -37 18 -60 167 -201
214 -202 19 0 8 58 -28 145 -16 39 -32 89 -36 113 -7 46 -33 71 -111 111 -23
11 -53 34 -65 51 -13 16 -39 49 -58 72 -29 37 -32 48 -28 85 6 55 49 113 83
113 29 0 30 5 4 54 -22 44 -15 73 9 36 22 -34 81 -91 81 -80 0 16 14 11 43
-16 40 -37 49 -21 22 39 -14 28 -25 62 -25 74 0 31 -10 53 -25 53 -7 0 -27 13
-43 28 -17 16 -43 37 -57 46 -22 15 -26 23 -21 47 6 33 6 34 -99 114 -38 30
-109 84 -157 121 -48 37 -92 80 -99 95 -6 16 -21 31 -32 35 -25 8 -94 63 -187
151 -36 34 -89 79 -117 100 -274 204 -512 445 -660 668 -108 165 -282 460
-283 483 0 14 9 13 -109 15 -66 2 -95 -1 -98 -10z m1257 -1414 c0 -5 -4 -9
-10 -9 -5 0 -10 7 -10 16 0 8 5 12 10 9 6 -3 10 -10 10 -16z m-69 1 c10 -6 19
-15 19 -20 0 -17 -26 -11 -45 10 -20 22 -7 27 26 10z m89 -52 c0 -14 -37 -9
-49 6 -9 11 -9 15 1 18 14 5 48 -12 48 -24z"/>
<path d="M12095 14431 c-3 -6 9 -37 28 -69 20 -31 83 -138 142 -237 132 -221
169 -273 292 -411 110 -124 198 -211 262 -256 24 -17 56 -44 70 -60 14 -15 54
-47 89 -71 115 -78 276 -210 368 -302 50 -50 106 -102 125 -115 19 -13 59 -46
91 -74 111 -100 271 -212 287 -201 12 7 -62 84 -174 181 -49 43 -124 110 -165
150 -41 39 -118 108 -170 153 -52 45 -102 87 -110 94 -16 15 -103 81 -180 137
-285 209 -500 431 -677 700 -31 47 -73 110 -93 140 -20 30 -46 75 -58 100 -58
115 -78 145 -99 148 -11 2 -24 -2 -28 -7z"/>
<path d="M12320 14430 c0 -23 34 -60 73 -79 23 -12 76 -53 117 -93 41 -39 92
-84 113 -99 20 -15 64 -51 98 -80 33 -30 65 -54 71 -54 17 0 117 -89 118 -105
1 -26 91 -137 208 -258 35 -37 70 -78 78 -94 8 -15 22 -31 31 -36 22 -13 121
-105 356 -333 376 -363 423 -408 474 -448 29 -23 55 -41 59 -41 4 0 30 -21 59
-47 90 -83 157 -138 179 -148 12 -5 35 -22 51 -37 17 -16 35 -28 42 -28 15 0
27 115 19 175 -7 43 -9 45 -66 71 -32 14 -67 35 -76 45 -9 11 -27 19 -39 19
-13 0 -28 7 -35 15 -7 8 -17 15 -23 15 -11 0 -73 50 -121 98 -18 17 -40 32
-49 32 -9 0 -17 6 -17 13 0 8 -11 20 -25 27 -14 7 -25 19 -25 26 0 8 -6 11
-14 8 -14 -5 -30 20 -35 55 0 5 -15 14 -31 20 -17 5 -33 17 -36 25 -3 9 -11
13 -16 10 -6 -4 -8 2 -3 15 5 18 1 24 -24 34 -17 6 -31 18 -31 25 0 8 -24 37
-52 65 -29 29 -72 73 -94 99 -23 26 -63 61 -88 78 -25 17 -46 36 -46 41 0 5
-4 9 -9 9 -5 0 -28 18 -51 40 -45 42 -46 52 -2 21 15 -10 49 -25 76 -34 27
-10 58 -25 69 -34 14 -13 34 -18 70 -16 44 1 56 -3 92 -32 22 -19 53 -38 68
-44 15 -6 27 -17 27 -24 0 -8 6 -14 13 -14 18 0 67 -33 67 -45 0 -7 -12 -8
-32 -3 -40 9 -79 8 -90 -3 -4 -4 65 -78 154 -162 89 -85 169 -162 177 -171 35
-36 141 -109 229 -157 12 -6 30 -17 41 -24 10 -6 25 -9 34 -5 13 5 15 43 13
287 -2 265 -3 283 -21 296 -10 8 -27 14 -37 14 -10 0 -18 5 -18 10 0 6 16 10
35 10 31 0 35 3 35 25 0 28 -22 42 -110 70 -147 47 -808 400 -949 507 -117 88
-311 268 -311 288 0 19 60 40 114 40 51 0 59 -4 143 -65 170 -126 313 -219
463 -305 36 -20 90 -51 120 -69 64 -37 185 -95 220 -106 14 -4 49 -18 78 -31
29 -13 57 -24 62 -24 6 0 18 -4 28 -10 9 -5 37 -17 62 -26 88 -30 81 -33 78
31 l-3 57 -95 33 c-178 61 -361 148 -543 259 -65 39 -134 79 -153 89 -19 9
-34 22 -34 27 0 6 -30 24 -67 42 -38 17 -89 44 -114 60 -25 15 -60 28 -76 28
-44 0 -93 11 -93 21 0 25 200 77 235 60 35 -17 59 -23 107 -27 102 -10 217
-42 248 -68 8 -8 33 -19 55 -26 22 -7 103 -43 181 -81 78 -38 144 -69 147 -69
7 0 107 -44 150 -66 16 -8 34 -14 42 -14 23 0 32 128 17 229 l-7 44 -75 23
c-41 13 -85 24 -97 24 -13 0 -23 4 -23 9 0 19 19 21 61 5 24 -9 64 -16 89 -17
39 -2 45 1 45 18 0 17 -15 22 -135 42 -169 28 -192 27 -125 -10 l50 -27 -65 6
c-36 3 -76 9 -90 14 -14 5 -68 16 -121 25 -79 13 -114 13 -194 5 -81 -10 -102
-9 -129 3 -26 13 -119 15 -581 16 -523 0 -635 -3 -635 -18 0 -3 20 -28 45 -55
25 -27 43 -52 40 -54 -6 -7 -75 47 -75 59 0 5 -6 9 -14 9 -8 0 -21 8 -28 18
-23 32 -78 55 -78 32z m694 -575 c22 -19 36 -38 33 -42 -4 -3 -26 13 -49 35
-51 51 -39 55 16 7z m94 -71 c29 -14 43 -34 25 -34 -10 0 -70 49 -62 50 3 0
20 -7 37 -16z"/>
<path d="M5783 14418 c-13 -17 -22 -49 -33 -118 -10 -67 -55 -268 -69 -313
-18 -54 -41 -162 -41 -188 0 -13 -9 -47 -19 -74 -14 -36 -17 -61 -12 -85 l7
-35 21 40 c11 22 24 56 28 75 6 34 29 104 45 145 19 45 72 232 76 270 2 16 9
34 15 40 14 13 3 -72 -17 -130 -16 -47 -18 -115 -4 -115 6 0 10 -9 10 -21 0
-16 -4 -19 -17 -15 -9 4 -20 1 -25 -6 -12 -20 -9 -66 4 -70 10 -4 10 -10 0
-32 -6 -15 -12 -39 -12 -54 0 -32 -29 -112 -41 -112 -5 0 -9 -7 -9 -16 0 -8
-7 -37 -16 -64 -19 -58 -16 -85 11 -85 11 0 25 -3 31 -7 16 -10 26 32 12 49
-8 10 -5 25 13 61 13 26 25 49 27 52 2 2 8 -2 13 -10 9 -13 10 -13 6 1 -3 9
-1 21 5 27 6 6 6 16 -3 29 -7 11 -9 28 -5 38 8 23 15 16 18 -18 2 -18 8 -27
20 -27 21 0 24 31 6 59 -9 15 -8 22 5 36 9 9 20 34 23 56 4 21 10 39 15 39 4
0 8 15 7 33 0 67 14 143 33 183 11 23 22 72 25 110 3 38 12 85 20 104 9 22 14
59 12 95 l-3 60 -38 3 c-46 4 -62 -8 -71 -49 -8 -40 -28 -28 -24 14 2 26 -1
33 -18 35 -11 2 -25 -3 -31 -10z m50 -123 c-5 -13 -23 -22 -23 -11 0 15 14 35
21 31 4 -3 6 -12 2 -20z m-13 -60 c0 -19 -4 -35 -10 -35 -11 0 -13 30 -4 54
10 25 14 19 14 -19z m0 -482 c0 -5 -5 -15 -10 -23 -8 -12 -10 -11 -10 8 0 12
5 22 10 22 6 0 10 -3 10 -7z m-53 -109 c-3 -3 -12 -4 -19 -1 -8 3 -5 6 6 6 11
1 17 -2 13 -5z"/>
<path d="M10153 14383 c73 -82 109 -118 101 -103 -12 23 -126 150 -135 150 -4
0 11 -21 34 -47z"/>
<path d="M10732 14423 c-9 -3 -7 -12 8 -33 11 -15 24 -39 30 -54 5 -14 14 -26
20 -26 13 0 13 6 -1 33 -11 21 -10 21 15 -2 29 -28 33 -41 11 -41 -8 0 -15 -4
-15 -10 0 -5 5 -10 10 -10 6 0 10 -6 10 -13 0 -14 41 -57 53 -57 4 0 7 7 7 15
0 18 12 19 28 3 14 -14 16 -48 3 -48 -18 0 2 -41 40 -83 39 -43 125 -151 146
-183 41 -62 63 -95 96 -141 20 -29 37 -64 37 -77 0 -14 5 -28 10 -31 6 -4 31
-49 56 -101 24 -51 57 -108 73 -126 15 -18 38 -51 50 -73 23 -40 101 -108 144
-124 12 -5 48 -15 79 -22 61 -13 113 -4 151 25 32 25 52 144 62 360 6 136 -61
401 -179 714 -43 113 -42 111 -65 105 -23 -6 -33 -50 -17 -75 8 -14 8 -20 -2
-26 -13 -8 -5 -47 20 -98 6 -12 7 -31 4 -41 -7 -23 2 -55 14 -48 5 3 16 -5 24
-17 12 -17 13 -25 3 -36 -6 -8 -12 -38 -13 -67 -2 -59 -23 -125 -40 -125 -6 0
-18 -21 -26 -47 -12 -38 -20 -49 -40 -51 -19 -2 -28 5 -44 36 -27 56 -74 115
-111 143 -18 13 -33 29 -33 34 0 14 -82 66 -95 61 -21 -8 -40 33 -22 50 14 14
7 24 -19 24 -23 0 -25 3 -20 24 4 15 0 28 -9 36 -8 7 -15 21 -15 32 0 11 -5
16 -10 13 -6 -4 -8 -15 -5 -25 10 -31 -24 -34 -36 -2 -6 15 -21 41 -34 58 -19
24 -21 34 -12 44 10 10 8 12 -10 7 -16 -3 -27 2 -38 19 -9 15 -26 24 -43 25
-17 1 -20 3 -9 6 23 6 22 30 -2 43 -20 10 -215 13 -239 3z m226 -262 c3 -8 -1
-12 -9 -9 -7 2 -15 10 -17 17 -3 8 1 12 9 9 7 -2 15 -10 17 -17z m720 -281
c-1 -27 -5 -47 -8 -45 -10 6 -22 84 -15 96 13 20 24 -4 23 -51z m-473 20 c3
-5 1 -10 -4 -10 -6 0 -11 5 -11 10 0 6 2 10 4 10 3 0 8 -4 11 -10z m90 -80 c3
-5 -1 -10 -9 -10 -25 0 -29 -21 -7 -36 12 -8 21 -23 21 -33 0 -9 5 -22 12 -29
7 -7 9 -12 4 -12 -4 0 0 -10 8 -22 17 -24 21 -58 7 -58 -14 0 -41 47 -41 70 0
12 -7 28 -15 36 -8 9 -15 24 -15 34 0 10 -4 22 -10 25 -16 10 -12 33 8 38 28
8 31 7 37 -3z m355 -70 c11 -6 17 -16 14 -25 -4 -9 -1 -22 6 -30 9 -11 7 -20
-11 -44 -13 -17 -28 -31 -33 -31 -7 0 -12 29 -14 70 -2 72 2 79 38 60z"/>
<path d="M12220 14414 c0 -8 7 -17 15 -20 8 -4 15 -14 15 -24 0 -37 64 -159
77 -146 3 3 -7 26 -21 51 -15 25 -24 50 -20 56 3 6 2 21 -4 32 -6 12 -12 29
-15 38 -7 21 -47 32 -47 13z"/>
<path d="M14410 14426 c0 -9 40 -13 46 -5 3 5 -6 9 -20 9 -14 0 -26 -2 -26 -4z"/>
<path d="M7356 14337 c-20 -24 -36 -50 -36 -57 0 -8 -8 -23 -19 -34 -21 -24
-41 -78 -41 -112 0 -12 -19 -57 -41 -100 -31 -57 -42 -91 -43 -126 0 -26 4
-48 9 -49 17 -4 70 113 80 176 11 73 15 86 25 80 12 -8 26 21 34 74 4 23 17
57 30 75 21 29 50 106 42 114 -2 1 -20 -17 -40 -41z"/>
<path d="M10635 14370 c3 -5 8 -10 11 -10 2 0 4 5 4 10 0 6 -5 10 -11 10 -5 0
-7 -4 -4 -10z"/>
<path d="M4924 14298 c2 -24 8 -53 13 -66 9 -23 9 -23 27 -4 12 14 16 33 14
63 -3 40 -6 44 -31 47 -27 3 -27 2 -23 -40z"/>
<path d="M8770 14325 c-7 -8 -19 -15 -27 -15 -7 0 -17 -8 -20 -17 -4 -10 -16
-26 -28 -35 -11 -10 -15 -17 -10 -18 13 0 119 78 123 91 6 15 -25 10 -38 -6z"/>
<path d="M13667 14302 c60 -48 419 -233 588 -304 96 -40 195 -71 202 -64 11
11 -8 22 -102 60 -49 20 -112 48 -140 61 -27 13 -75 35 -105 50 -30 14 -71 34
-90 44 -19 11 -62 33 -95 49 -33 16 -82 41 -110 55 -132 66 -197 88 -148 49z"/>
<path d="M11108 14283 c7 -3 16 -2 19 1 4 3 -2 6 -13 5 -11 0 -14 -3 -6 -6z"/>
<path d="M13197 14202 c115 -114 287 -248 403 -313 447 -251 721 -388 833
-413 26 -6 27 -5 27 31 0 52 -10 63 -61 74 -53 11 -136 42 -204 74 -142 68
-302 149 -316 161 -8 8 -19 14 -24 14 -12 0 -296 160 -320 180 -11 10 -58 43
-105 75 -47 32 -101 72 -120 90 -37 34 -115 75 -144 75 -12 0 -3 -14 31 -48z"/>
<path d="M10291 14210 c13 -16 24 -28 27 -26 6 6 -29 56 -39 56 -5 0 0 -13 12
-30z"/>
<path d="M12340 14191 c0 -6 4 -13 10 -16 6 -3 7 1 4 9 -7 18 -14 21 -14 7z"/>
<path d="M5301 14135 c-10 -38 -9 -48 3 -61 9 -8 18 -30 22 -49 3 -20 16 -41
31 -50 32 -21 37 -15 24 27 -5 18 -20 66 -32 106 -12 39 -25 72 -29 72 -4 0
-13 -20 -19 -45z"/>
<path d="M8515 14134 c-27 -14 -51 -30 -53 -35 -2 -5 -12 -9 -23 -9 -10 0 -28
-9 -38 -19 -11 -11 -27 -18 -36 -18 -9 1 -24 -8 -32 -20 -15 -22 -14 -22 17
-13 59 17 215 99 228 120 17 28 0 26 -63 -6z"/>
<path d="M12360 14154 c0 -6 77 -122 143 -214 140 -196 309 -362 529 -516 61
-43 64 -45 103 -78 17 -14 73 -60 125 -102 82 -67 135 -116 324 -299 17 -16
72 -66 122 -110 50 -45 107 -100 128 -123 40 -43 72 -60 87 -45 16 16 -394
407 -538 515 -29 21 -53 42 -53 46 0 4 -23 25 -51 46 -57 42 -76 58 -128 101
-20 17 -56 44 -81 60 -175 116 -402 319 -490 438 -23 31 -45 57 -49 57 -4 0
-15 15 -25 33 -62 108 -146 218 -146 191z"/>
<path d="M5602 14050 c0 -19 2 -27 5 -17 2 9 2 25 0 35 -3 9 -5 1 -5 -18z"/>
<path d="M8247 14000 c-9 -11 -17 -26 -17 -33 0 -6 5 -4 11 6 5 9 21 17 34 17
16 0 25 6 25 15 0 22 -33 18 -53 -5z"/>
<path d="M8445 14000 c3 -5 10 -10 16 -10 5 0 9 5 9 10 0 6 -7 10 -16 10 -8 0
-12 -4 -9 -10z"/>
<path d="M12780 13997 c0 -7 7 -23 17 -36 9 -13 20 -44 25 -69 4 -25 17 -55
28 -67 11 -12 20 -26 20 -32 0 -29 257 -280 375 -368 60 -44 281 -232 349
-297 33 -31 62 -55 64 -53 5 5 -51 75 -61 75 -4 0 -23 15 -41 33 -36 34 -112
102 -241 213 -44 38 -96 83 -115 99 -118 102 -227 212 -247 249 -8 15 -30 50
-49 76 -19 26 -34 54 -34 62 0 14 -76 128 -86 128 -2 0 -4 -6 -4 -13z"/>
<path d="M6570 13949 c0 -6 -9 -24 -20 -39 -24 -34 -54 -114 -39 -105 30 19
90 155 68 155 -5 0 -9 -5 -9 -11z"/>
<path d="M10930 13951 c0 -5 5 -13 10 -16 6 -3 10 -2 10 4 0 5 -4 13 -10 16
-5 3 -10 2 -10 -4z"/>
<path d="M5196 13898 c-31 -73 -65 -142 -85 -173 -24 -37 -26 -63 -5 -86 9
-10 17 -42 19 -80 2 -35 5 -64 5 -64 2 0 11 -37 17 -70 3 -16 10 -35 15 -41 5
-7 6 -30 2 -53 -4 -23 -3 -41 3 -41 14 0 112 -99 141 -142 13 -21 31 -38 38
-38 8 0 14 -7 14 -15 0 -9 11 -28 25 -43 14 -15 25 -35 25 -45 0 -10 7 -20 15
-23 8 -4 15 -12 15 -19 0 -8 11 -27 25 -43 14 -17 25 -33 25 -37 0 -7 51 -52
89 -77 23 -16 24 -18 6 -18 -22 -1 -18 -5 36 -40 13 -8 35 -27 50 -42 15 -16
30 -28 34 -28 4 0 25 -16 48 -35 31 -27 49 -35 73 -33 26 2 39 -5 65 -35 18
-20 41 -37 51 -37 10 0 18 -4 18 -9 0 -5 14 -11 30 -13 18 -3 29 0 29 6 -1 6
2 30 6 54 7 41 18 52 30 31 4 -5 17 -14 29 -19 14 -5 27 -24 36 -49 12 -37 14
-39 26 -23 7 9 14 27 14 39 0 12 4 24 9 27 10 6 -11 95 -25 104 -6 4 -13 15
-17 25 -4 10 -20 23 -37 28 -16 6 -30 15 -30 19 0 15 60 8 69 -7 6 -12 15 -13
49 -4 22 6 42 16 44 22 2 6 21 -5 43 -25 22 -21 49 -36 63 -36 21 0 23 -4 18
-24 -3 -14 -3 -32 1 -42 6 -16 7 -15 21 2 13 18 14 17 8 -8 -10 -43 9 -33 29
15 9 23 26 58 36 78 34 65 16 285 -33 414 -32 85 -38 157 -18 225 5 19 6 37 2
41 -7 8 -84 13 -135 11 -26 -2 -28 -5 -25 -34 1 -18 7 -36 12 -40 10 -7 -9
-63 -31 -89 -7 -8 -13 -23 -13 -32 0 -9 -9 -21 -19 -27 -26 -13 -91 -13 -91 1
0 8 -17 9 -54 5 -33 -5 -57 -3 -60 3 -4 5 -28 13 -54 17 -26 4 -49 10 -52 13
-14 17 -109 91 -118 91 -5 0 -33 25 -63 55 -57 59 -102 137 -113 200 -9 44
-41 112 -96 200 -21 33 -46 77 -57 98 l-18 39 -80 3 c-44 1 -87 6 -95 9 -12 5
-21 -5 -34 -36z m113 -208 c6 0 11 -4 11 -10 0 -5 3 -9 8 -8 4 1 21 -4 37 -11
17 -7 32 -12 35 -11 8 3 38 -73 39 -98 1 -13 5 -20 11 -17 6 3 10 -2 10 -12 0
-15 4 -13 25 10 14 15 27 27 29 27 2 0 6 -13 8 -29 2 -17 1 -28 -4 -25 -12 8
-10 -3 6 -35 8 -15 14 -38 13 -50 -2 -35 -26 -24 -37 19 -6 22 -17 40 -24 40
-7 0 -23 -18 -35 -41 -22 -39 -54 -61 -77 -52 -17 6 -35 53 -29 73 3 10 1 21
-5 25 -6 3 -10 -4 -10 -17 -1 -20 -2 -21 -10 -6 -6 9 -11 28 -12 43 -1 14 -8
31 -15 37 -7 6 -13 16 -13 23 0 6 -9 20 -20 30 -14 12 -18 25 -14 42 4 15 0
30 -11 43 -16 18 -15 19 12 34 26 14 29 14 45 -4 9 -11 21 -20 27 -20z m214
-374 c6 -15 -1 -26 -15 -26 -4 0 -8 9 -8 20 0 23 15 27 23 6z m57 -140 c0 -11
-19 -15 -25 -6 -3 5 1 10 9 10 9 0 16 -2 16 -4z"/>
<path d="M8142 13910 c-23 -22 -29 -40 -12 -40 5 0 24 13 42 30 29 26 31 29
12 30 -11 0 -30 -9 -42 -20z"/>
<path d="M6155 13885 c-27 -13 -59 -24 -70 -25 -16 0 -17 -2 -6 -9 13 -8 13
-12 0 -27 -13 -16 -12 -17 11 -11 14 4 28 7 33 7 4 0 7 9 7 19 0 16 9 20 56
23 41 2 59 -1 68 -12 6 -8 20 -20 31 -26 13 -8 19 -21 18 -39 -2 -22 1 -26 17
-22 24 6 34 -21 25 -63 -9 -43 4 -120 21 -120 10 0 13 -7 8 -24 -3 -14 -1 -32
4 -42 9 -16 10 -16 16 3 4 11 2 40 -3 64 -6 24 -11 63 -11 85 0 57 -11 105
-21 98 -5 -3 -9 5 -9 18 0 19 2 20 10 8 8 -11 9 -7 4 15 -9 40 -28 60 -78 85
-52 25 -68 24 -131 -5z"/>
<path d="M11506 13865 c-3 -8 -1 -15 4 -15 6 0 10 7 10 15 0 8 -2 15 -4 15 -2
0 -6 -7 -10 -15z"/>
<path d="M8081 13849 c-12 -12 -20 -24 -16 -27 3 -3 15 4 27 16 28 28 18 38
-11 11z"/>
<path d="M6226 13821 c-4 -5 -20 -9 -36 -9 -17 1 -33 -2 -36 -5 -13 -13 10
-27 45 -27 30 0 40 4 44 20 5 21 -8 37 -17 21z"/>
<path d="M7160 13814 c0 -8 5 -12 10 -9 6 3 10 10 10 16 0 5 -4 9 -10 9 -5 0
-10 -7 -10 -16z"/>
<path d="M7994 13817 c-22 -11 -49 -67 -33 -67 5 0 9 5 9 10 0 6 11 22 25 36
21 21 32 38 23 33 -2 -1 -12 -6 -24 -12z"/>
<path d="M8017 13779 c-15 -11 -27 -25 -27 -30 0 -6 -11 -25 -23 -42 -32 -43
-63 -106 -98 -195 -16 -43 -38 -81 -53 -93 -33 -26 -36 -69 -5 -69 19 0 21 -4
15 -31 -3 -18 -1 -38 5 -45 8 -9 7 -22 -4 -46 -24 -55 -51 -148 -45 -154 11
-11 111 173 102 188 -14 23 -3 172 15 213 10 24 22 58 26 75 10 48 46 121 90
184 42 61 43 78 2 45z"/>
<path d="M6302 13728 c-16 -16 -15 -28 2 -28 9 0 14 9 13 20 -1 11 -2 20 -2
20 -1 0 -6 -5 -13 -12z"/>
<path d="M7622 13708 c7 -19 38 -22 38 -4 0 10 -9 16 -21 16 -12 0 -19 -5 -17
-12z"/>
<path d="M10588 13695 c-14 -14 52 -195 71 -195 18 0 13 26 -17 92 -15 35 -32
73 -38 86 -5 13 -12 20 -16 17z"/>
<path d="M7084 13613 c-3 -10 -9 -27 -14 -38 -27 -66 -67 -218 -43 -165 3 8
14 23 24 33 10 11 21 34 24 51 4 17 13 45 20 61 7 17 15 39 17 49 4 25 -20 33
-28 9z"/>
<path d="M5905 13518 c-22 -51 -50 -110 -63 -132 -28 -44 -24 -76 12 -99 23
-15 132 -57 148 -57 14 0 8 67 -12 131 -10 35 -22 106 -26 157 -4 50 -10 92
-13 92 -4 0 -25 -42 -46 -92z"/>
<path d="M11978 13478 c-2 -73 -2 -194 1 -268 7 -166 0 -195 -59 -226 -34 -18
-47 -21 -66 -12 -16 8 -27 8 -36 0 -17 -13 -152 1 -173 18 -9 7 -18 10 -22 7
-3 -4 -28 9 -55 28 -26 19 -50 35 -53 35 -10 0 -55 44 -56 54 0 6 -14 22 -31
35 l-30 24 15 -29 c21 -40 53 -81 114 -148 62 -67 74 -71 241 -69 134 2 169
12 217 61 l37 37 -7 100 c-4 55 -8 182 -9 282 -1 117 -5 186 -12 193 -8 8 -12
-25 -16 -122z"/>
<path d="M5806 13583 c-6 -14 -5 -15 5 -6 7 7 10 15 7 18 -3 3 -9 -2 -12 -12z"/>
<path d="M5640 13539 c0 -5 5 -7 10 -4 6 3 10 8 10 11 0 2 -4 4 -10 4 -5 0
-10 -5 -10 -11z"/>
<path d="M8151 13521 c-9 -6 -10 -11 -2 -15 13 -8 31 1 31 15 0 11 -11 11 -29
0z"/>
<path d="M6290 13450 c-12 -8 -11 -10 8 -10 12 0 22 5 22 10 0 13 -11 13 -30
0z"/>
<path d="M10530 13435 c0 -9 5 -15 11 -13 6 2 11 8 11 13 0 5 -5 11 -11 13 -6
2 -11 -4 -11 -13z"/>
<path d="M8899 13411 c-14 -12 -18 -20 -11 -21 15 0 47 28 40 36 -3 2 -16 -4
-29 -15z"/>
<path d="M5796 13395 c-4 -13 -2 -14 14 -5 23 13 26 20 6 20 -8 0 -16 -7 -20
-15z"/>
<path d="M7017 13374 c-4 -4 -7 -14 -7 -23 0 -11 3 -12 11 -4 6 6 10 16 7 23
-2 6 -7 8 -11 4z"/>
<path d="M8017 13363 c-10 -17 -11 -78 -2 -83 6 -3 11 15 12 43 2 45 -1 55
-10 40z"/>
<path d="M6747 13334 c-4 -4 -7 -14 -7 -23 0 -11 3 -12 11 -4 6 6 10 16 7 23
-2 6 -7 8 -11 4z"/>
<path d="M7723 13293 c-7 -2 -13 -10 -13 -17 0 -19 48 -68 60 -61 16 10 11 51
-8 68 -20 18 -20 18 -39 10z"/>
<path d="M8856 13278 c-18 -25 -21 -68 -6 -68 6 0 10 11 10 25 0 14 8 29 20
35 11 6 18 15 15 21 -10 15 -23 11 -39 -13z"/>
<path d="M6962 13233 c-26 -54 -23 -69 5 -21 25 43 34 68 25 68 -4 0 -17 -21
-30 -47z"/>
<path d="M10608 13182 c-10 -2 -18 -9 -18 -16 0 -24 13 -26 28 -5 16 23 14 27
-10 21z"/>
<path d="M8145 13090 c3 -5 8 -10 11 -10 2 0 4 5 4 10 0 6 -5 10 -11 10 -5 0
-7 -4 -4 -10z"/>
<path d="M7560 13060 c-13 -9 -13 -10 0 -9 8 0 24 4 35 9 l20 9 -20 0 c-11 0
-27 -4 -35 -9z"/>
<path d="M8765 13060 c-4 -6 -3 -16 3 -22 6 -6 12 -6 17 2 4 6 3 16 -3 22 -6
6 -12 6 -17 -2z"/>
<path d="M7500 13031 c0 -6 5 -13 10 -16 6 -3 10 1 10 9 0 9 -4 16 -10 16 -5
0 -10 -4 -10 -9z"/>
<path d="M8089 12993 c-1 -10 -1 -21 -1 -24 1 -4 -8 -15 -18 -24 -11 -10 -20
-29 -20 -42 0 -12 -4 -23 -8 -23 -9 0 -32 -59 -32 -83 0 -8 -9 -19 -20 -22
-11 -3 -20 -11 -20 -17 0 -10 -26 -71 -51 -120 -5 -10 -9 -25 -9 -33 0 -8 -7
-15 -15 -15 -9 0 -15 -10 -15 -26 0 -14 -7 -32 -15 -41 -14 -14 -12 -38 3 -29
7 4 30 48 50 96 20 48 24 55 52 105 38 65 118 231 139 288 9 22 8 27 -4 27 -8
0 -16 -8 -16 -17z"/>
<path d="M13730 13005 c0 -9 171 -178 239 -236 35 -30 71 -61 80 -70 49 -49
102 -91 108 -85 8 8 -27 46 -43 46 -7 0 -19 8 -26 18 -7 10 -44 46 -83 79 -38
33 -108 99 -155 147 -78 80 -120 115 -120 101z"/>
<path d="M12898 12923 c13 -23 70 -68 78 -61 7 7 -27 44 -60 64 -29 18 -29 18
-18 -3z"/>
<path d="M6840 12904 c-13 -32 -13 -44 0 -44 12 0 30 33 30 54 0 25 -20 19
-30 -10z"/>
<path d="M9332 12869 c2 -7 31 -18 67 -25 35 -6 66 -15 69 -20 11 -15 69 -44
87 -44 9 0 13 -5 10 -10 -3 -6 1 -13 10 -16 11 -4 26 3 43 19 l26 26 -37 16
c-20 8 -49 15 -64 15 -15 0 -39 6 -54 13 -14 8 -47 16 -75 20 -27 3 -57 9 -68
13 -13 5 -17 3 -14 -7z"/>
<path d="M9145 12846 c-11 -7 -31 -17 -45 -21 -36 -11 -158 -110 -149 -120 3
-3 40 18 83 46 70 45 110 66 186 97 23 10 22 11 -15 11 -22 1 -49 -5 -60 -13z"/>
<path d="M7658 12805 c-31 -50 -45 -95 -31 -95 11 0 66 117 61 131 -2 5 -15
-11 -30 -36z"/>
<path d="M12860 12804 c0 -8 5 -12 10 -9 6 3 10 10 10 16 0 5 -4 9 -10 9 -5 0
-10 -7 -10 -16z"/>
<path d="M13020 12813 c1 -10 91 -123 180 -225 54 -63 162 -230 233 -363 9
-16 48 -106 88 -200 39 -93 73 -172 75 -174 2 -2 6 4 10 13 3 9 -9 52 -29 99
-20 45 -39 96 -43 112 -4 17 -13 41 -20 55 -38 74 -94 201 -94 213 0 7 -13 26
-30 42 -16 15 -39 49 -51 74 -11 25 -35 60 -53 76 -37 36 -230 262 -234 276
-4 11 -32 12 -32 2z"/>
<path d="M9644 12735 c18 -14 18 -15 -5 -34 -27 -22 -28 -20 25 -44 46 -21 61
-13 26 13 -29 22 -19 40 12 21 13 -8 24 -9 30 -3 12 12 2 32 -17 32 -7 0 -15
7 -19 15 -3 9 -18 15 -38 15 -31 -1 -32 -2 -14 -15z"/>
<path d="M8876 12649 c-30 -31 -45 -54 -39 -60 6 -6 27 11 56 45 26 30 47 57
47 60 0 15 -19 1 -64 -45z"/>
<path d="M9796 12675 c4 -8 10 -12 15 -9 14 8 10 24 -6 24 -9 0 -12 -6 -9 -15z"/>
<path d="M9816 12651 c-3 -4 2 -18 11 -30 17 -25 38 -16 28 12 -8 18 -32 30
-39 18z"/>
<path d="M8890 12600 c-19 -11 -43 -23 -53 -27 -10 -3 -16 -12 -13 -19 3 -7 1
-16 -4 -19 -13 -8 -13 -35 1 -35 15 0 111 99 107 111 -2 5 -19 0 -38 -11z"/>
<path d="M9760 12596 c0 -8 31 -36 41 -36 15 0 10 27 -7 34 -18 7 -34 8 -34 2z"/>
<path d="M14215 12558 c156 -132 195 -182 195 -249 0 -28 -3 -31 -25 -27 -14
3 -33 0 -42 -7 -15 -11 -14 -14 8 -28 13 -8 42 -17 64 -19 36 -3 40 -1 43 21
2 14 -3 30 -11 36 -13 9 -13 18 -4 53 l11 42 -44 41 c-25 23 -70 60 -100 83
-30 22 -56 44 -58 49 -2 4 -9 7 -15 7 -7 0 -18 9 -25 20 -7 11 -20 20 -30 20
-11 0 0 -15 33 -42z"/>
<path d="M11190 12550 c0 -22 20 -26 38 -8 19 19 14 28 -13 28 -18 0 -25 -5
-25 -20z"/>
<path d="M14060 12541 c0 -12 80 -81 94 -81 12 0 -74 89 -86 90 -5 0 -8 -4 -8
-9z"/>
<path d="M6510 12513 c-11 -25 -31 -98 -47 -175 -6 -34 3 -36 28 -5 l18 22 1
-32 c0 -41 25 -45 33 -5 3 15 13 54 22 88 16 59 16 61 -5 97 -12 20 -25 37
-29 37 -4 0 -14 -12 -21 -27z"/>
<path d="M8500 12525 c-7 -8 -8 -15 -2 -15 5 0 15 7 22 15 7 8 8 15 2 15 -5 0
-15 -7 -22 -15z"/>
<path d="M12158 12513 c7 -3 16 -2 19 1 4 3 -2 6 -13 5 -11 0 -14 -3 -6 -6z"/>
<path d="M12240 12510 c0 -5 5 -10 10 -10 6 0 10 5 10 10 0 6 -4 10 -10 10 -5
0 -10 -4 -10 -10z"/>
<path d="M13140 12513 c0 -5 16 -26 34 -48 38 -45 61 -42 25 3 -26 32 -59 57
-59 45z"/>
<path d="M7490 12459 c-24 -37 -30 -53 -21 -62 8 -8 11 -7 11 3 0 7 8 23 19
34 16 18 37 76 28 76 -2 0 -18 -23 -37 -51z"/>
<path d="M11220 12478 c0 -28 10 -42 33 -51 11 -4 17 -17 17 -35 0 -38 25 -62
35 -33 3 10 12 22 20 25 8 3 15 13 15 23 0 13 -2 15 -8 5 -13 -19 -40 -4 -59
31 -16 32 -37 57 -47 57 -3 0 -6 -10 -6 -22z"/>
<path d="M6123 12483 c-9 -3 -10 -10 -3 -23 7 -13 7 -21 0 -25 -15 -9 -12 -23
11 -46 15 -15 18 -24 10 -32 -18 -18 -13 -39 23 -107 30 -56 34 -70 29 -117
-5 -45 -3 -53 11 -53 9 0 16 -6 16 -14 0 -8 5 -16 11 -18 7 -2 7 -12 0 -30
-11 -28 -6 -38 18 -38 10 0 22 -16 31 -42 11 -30 22 -44 39 -48 32 -7 36 -39
8 -65 -12 -11 -22 -20 -22 -20 0 0 -14 12 -30 28 -35 32 -45 34 -45 7 0 -14 7
-20 23 -20 16 0 18 -3 8 -9 -11 -7 -10 -11 5 -20 13 -8 15 -11 4 -10 -41 4
-59 -1 -54 -16 4 -8 14 -15 24 -15 11 0 21 -4 24 -9 11 -17 56 -19 67 -2 8 12
9 9 6 -15 -3 -27 0 -31 17 -27 16 4 18 2 7 -5 -21 -15 -4 -70 34 -108 18 -18
35 -38 37 -46 4 -11 10 -10 31 1 15 8 27 20 27 26 0 6 7 12 15 12 8 0 15 -5
15 -11 0 -5 10 -25 23 -43 17 -25 29 -33 52 -33 30 0 30 -1 26 -46 -3 -50 6
-64 47 -64 12 0 22 -6 22 -13 0 -8 21 -36 48 -62 26 -27 40 -45 32 -40 -13 8
-13 7 0 -11 37 -49 56 -70 63 -71 5 -1 22 -19 38 -40 16 -21 43 -54 59 -73 17
-19 39 -54 51 -77 11 -23 35 -50 54 -62 18 -10 40 -35 49 -53 9 -19 30 -42 47
-52 21 -12 29 -24 28 -39 -4 -29 27 -75 54 -79 14 -2 24 -14 30 -38 13 -50 25
-62 59 -55 28 7 28 6 28 -41 0 -45 1 -47 16 -28 8 10 13 13 9 7 -4 -8 0 -13 9
-13 9 0 22 -13 31 -30 13 -25 22 -30 50 -30 23 0 35 -5 35 -14 0 -8 7 -17 15
-20 14 -5 13 -10 -6 -35 -23 -32 -19 -51 13 -51 11 0 22 -8 25 -19 3 -13 17
-20 46 -24 45 -6 69 6 60 29 -3 9 1 14 13 14 18 0 58 -20 42 -20 -4 0 -3 -11
2 -25 8 -22 6 -26 -15 -31 -24 -6 -44 -34 -24 -34 6 0 9 -6 6 -14 -4 -9 2 -13
16 -12 12 1 23 7 23 14 1 6 2 19 3 27 1 9 11 15 26 15 22 0 24 -3 15 -19 -5
-11 -10 -27 -10 -35 0 -21 46 -21 54 -1 6 17 36 21 36 5 0 -6 10 -15 23 -21
44 -20 67 -36 60 -42 -3 -4 -2 -7 4 -7 6 0 13 -9 16 -20 3 -11 24 -29 49 -40
23 -11 39 -20 35 -20 -4 0 -2 -6 5 -14 7 -8 16 -12 20 -9 13 7 50 -18 45 -31
-3 -7 -1 -19 4 -27 7 -11 9 -11 9 2 0 22 27 31 51 18 29 -15 58 -46 51 -54 -4
-3 1 -3 9 0 10 4 20 -3 28 -17 28 -54 41 -72 41 -60 0 6 5 12 10 12 6 0 10 -6
10 -13 0 -7 9 -18 20 -25 11 -7 20 -20 20 -30 0 -18 73 -92 91 -92 5 0 9 -11
9 -25 0 -33 28 -45 46 -20 8 10 14 14 14 9 0 -6 -5 -15 -12 -22 -12 -12 -12
-12 37 -27 8 -2 15 -13 15 -23 0 -20 29 -52 47 -52 6 0 14 -11 17 -25 6 -23
10 -25 40 -20 30 6 34 4 46 -24 7 -17 16 -31 20 -31 4 0 13 -20 20 -45 9 -30
18 -45 29 -45 10 0 26 -7 37 -15 10 -8 33 -15 51 -15 17 0 35 -5 38 -11 4 -5
18 -14 31 -19 13 -5 24 -16 24 -25 0 -8 6 -15 13 -15 6 0 32 -19 56 -43 25
-23 47 -42 50 -43 3 0 13 -4 22 -8 9 -4 22 -6 29 -4 6 2 21 -14 32 -34 11 -21
24 -38 29 -38 5 0 9 -10 9 -21 0 -17 3 -19 14 -10 19 16 57 -6 48 -27 -4 -11
0 -13 17 -7 21 6 22 5 10 -17 -6 -12 -17 -27 -23 -31 -6 -4 1 -5 17 -1 22 5
26 3 21 -10 -3 -9 -1 -16 5 -16 7 0 19 -16 27 -35 10 -25 21 -35 37 -35 17 0
19 -2 7 -9 -8 -6 -19 -7 -25 -5 -5 3 -2 -1 8 -9 10 -8 26 -13 36 -10 22 6 33
-26 24 -68 -4 -23 -2 -29 12 -29 10 0 27 8 37 17 18 16 18 16 12 -3 -4 -10
-12 -22 -17 -25 -22 -15 6 -24 67 -21 54 3 63 6 53 17 -6 7 -28 34 -47 60 -37
50 -82 102 -170 200 -30 33 -75 85 -100 115 -56 67 -262 273 -320 320 -50 40
-182 153 -220 189 -14 13 -41 35 -60 49 -19 15 -48 41 -65 58 -16 18 -50 49
-75 69 -42 34 -204 184 -364 338 -38 37 -72 67 -74 67 -10 0 -31 36 -32 53 0
9 -7 17 -15 17 -19 0 -105 48 -132 74 -32 32 -52 48 -98 81 -23 17 -71 54
-106 83 -35 30 -79 66 -98 80 -18 15 -44 36 -56 47 -12 11 -51 45 -85 75 -110
96 -316 312 -379 397 -33 44 -64 83 -70 85 -5 1 -11 14 -13 28 -2 20 8 33 62
73 116 88 140 109 140 127 0 13 6 17 18 13 19 -5 46 19 40 36 -2 6 -13 5 -28
-4 -14 -8 -40 -22 -59 -30 -18 -9 -35 -25 -38 -35 -9 -33 -123 -88 -123 -59 0
5 9 9 19 9 25 0 37 18 17 26 -8 3 -29 -4 -46 -16 -29 -20 -30 -24 -16 -39 49
-54 -50 -13 -115 47 -97 90 -117 111 -173 182 -33 41 -66 79 -73 83 -7 4 -13
13 -13 18 0 6 -22 36 -50 67 -27 31 -50 62 -50 69 0 7 -8 17 -18 22 -10 5 -31
35 -47 66 -17 32 -36 60 -42 62 -7 3 -13 13 -13 23 0 11 -5 22 -10 25 -14 9
-70 133 -70 156 0 10 -4 20 -9 23 -5 4 -12 40 -16 81 -4 41 -11 72 -16 69 -5
-3 -9 2 -9 10 0 8 -8 17 -18 20 -10 3 -29 29 -42 58 -25 52 -35 60 -57 51z
m261 -669 c20 -8 20 -21 2 -40 -28 -28 -41 -18 -30 24 7 25 6 24 28 16z m-67
-51 c-3 -3 -11 -2 -17 2 -9 6 -9 10 1 16 14 8 27 -7 16 -18z m130 -53 c1 -11
-4 -20 -13 -20 -8 0 -14 9 -14 20 0 11 6 20 13 20 7 0 13 -9 14 -20z m50 -50
c4 -27 -23 -26 -30 2 -3 12 -3 26 0 31 7 12 26 -8 30 -33z m-47 -70 c0 -5 -2
-10 -4 -10 -3 0 -8 5 -11 10 -3 6 -1 10 4 10 6 0 11 -4 11 -10z m2375 -2169
c-3 -6 -11 -8 -17 -5 -6 4 -5 9 3 15 16 10 23 4 14 -10z m685 -641 c0 -5 -10
-10 -22 -10 -19 0 -20 2 -8 10 19 13 30 13 30 0z"/>
<path d="M12198 12479 c4 -3 20 -10 36 -13 26 -6 28 -5 17 8 -7 9 -24 15 -37
14 -13 -1 -20 -5 -16 -9z"/>
<path d="M7827 12443 c-4 -3 -7 -13 -7 -20 0 -12 3 -12 15 1 8 8 15 17 15 20
0 8 -15 7 -23 -1z"/>
<path d="M8695 12409 c-4 -6 -5 -12 -2 -15 2 -3 7 2 10 11 7 17 1 20 -8 4z"/>
<path d="M7795 12371 c3 -11 1 -22 -5 -26 -5 -3 -10 0 -10 7 -1 17 -30 -50
-30 -68 0 -27 17 -13 43 35 31 56 33 71 11 71 -11 0 -13 -6 -9 -19z"/>
<path d="M7442 12368 c2 -5 8 -9 13 -9 5 0 11 4 13 9 1 5 -4 9 -13 9 -9 0 -14
-4 -13 -9z"/>
<path d="M10004 12360 c3 -14 6 -33 6 -42 0 -28 67 -88 98 -88 25 1 26 2 8 15
-10 7 -15 19 -11 24 4 7 -6 14 -24 17 -19 4 -31 13 -31 23 -1 9 -12 30 -26 46
-26 29 -26 29 -20 5z"/>
<path d="M8421 12344 c0 -11 3 -14 6 -6 3 7 2 16 -1 19 -3 4 -6 -2 -5 -13z"/>
<path d="M8656 12343 c-6 -14 -5 -15 5 -6 7 7 10 15 7 18 -3 3 -9 -2 -12 -12z"/>
<path d="M8455 12320 c-10 -11 -15 -20 -11 -20 3 0 -1 -12 -11 -27 -13 -19
-14 -28 -5 -31 19 -6 15 -18 -18 -54 -30 -32 -39 -58 -20 -58 5 0 7 -6 4 -14
-3 -8 -11 -13 -18 -10 -12 5 -36 -73 -39 -128 -2 -22 -6 -27 -19 -22 -21 6
-23 -6 -5 -25 10 -10 9 -15 -5 -25 -10 -7 -18 -20 -18 -29 0 -9 -5 -28 -12
-42 -9 -19 -8 -31 2 -49 11 -21 10 -28 -9 -54 -11 -17 -21 -39 -21 -50 0 -12
-4 -24 -10 -27 -5 -3 -10 -15 -10 -25 0 -11 -11 -39 -25 -64 -14 -25 -25 -58
-25 -74 0 -19 -8 -35 -25 -48 -23 -17 -37 -63 -15 -49 25 16 1 -42 -32 -77
-10 -10 -18 -29 -18 -43 0 -14 -4 -25 -9 -25 -5 0 -15 -17 -22 -37 -18 -56
-55 -118 -71 -118 -7 0 -12 -9 -11 -20 1 -16 -10 -35 -58 -93 -6 -7 -9 -18 -6
-25 2 -7 -9 -31 -25 -54 -23 -34 -25 -43 -13 -43 9 0 19 8 22 18 4 9 22 34 42
54 19 21 49 64 67 95 73 131 142 272 149 302 4 18 14 41 23 51 8 10 21 36 29
57 50 135 69 192 98 303 31 120 93 313 120 375 35 78 45 104 45 112 0 4 10 27
22 51 20 37 21 44 8 52 -21 13 -25 13 -45 -10z"/>
<path d="M13656 12314 c-21 -21 -20 -22 8 -17 16 3 23 10 19 19 -7 18 -8 17
-27 -2z"/>
<path d="M13876 12311 c-23 -25 -11 -45 22 -36 16 4 28 1 33 -7 13 -21 19 -4
10 28 -7 24 -10 26 -16 12 -8 -21 -29 -13 -21 8 8 20 -8 17 -28 -5z"/>
<path d="M8615 12289 c-4 -6 -5 -13 -2 -16 7 -7 27 6 27 18 0 12 -17 12 -25
-2z"/>
<path d="M13630 12260 c0 -5 5 -10 10 -10 6 0 10 5 10 10 0 6 -4 10 -10 10 -5
0 -10 -4 -10 -10z"/>
<path d="M7383 12248 c-6 -7 -13 -26 -17 -43 l-7 -30 25 34 c14 19 26 39 26
43 0 12 -16 10 -27 -4z"/>
<path d="M7728 12245 c-7 -19 -26 -68 -44 -110 -7 -19 -7 -19 9 -3 9 9 17 22
17 28 0 6 7 22 16 35 8 13 14 34 12 47 -3 22 -4 22 -10 3z"/>
<path d="M6381 12201 c-23 -27 -41 -57 -41 -67 0 -25 42 -92 47 -76 3 6 9 10
14 7 5 -4 6 13 2 40 -3 26 -1 56 5 68 10 21 22 77 17 77 -2 0 -22 -22 -44 -49z"/>
<path d="M8572 12203 c-17 -30 -15 -37 4 -19 8 9 14 22 11 29 -2 7 -8 4 -15
-10z"/>
<path d="M10156 12201 c-6 -10 22 -37 29 -29 8 7 -5 38 -15 38 -5 0 -11 -4
-14 -9z"/>
<path d="M14400 12178 c0 -7 14 -31 30 -52 24 -31 31 -36 36 -22 3 9 3 32 0
51 -6 31 -11 35 -36 35 -18 0 -30 -5 -30 -12z"/>
<path d="M6135 12100 c-19 -8 -19 -9 3 -9 12 -1 22 4 22 9 0 6 -1 10 -2 9 -2
0 -12 -4 -23 -9z"/>
<path d="M6497 12028 c-24 -49 -37 -88 -35 -105 l3 -28 23 35 c26 40 55 132
50 157 -2 11 -18 -13 -41 -59z"/>
<path d="M8585 12007 c-50 -67 -69 -184 -41 -252 18 -42 26 -43 82 -10 52 31
102 116 110 190 5 42 2 55 -16 78 -17 22 -29 27 -65 27 -38 0 -47 -4 -70 -33z"/>
<path d="M9362 12018 c3 -7 13 -15 22 -16 12 -3 17 1 14 10 -3 7 -13 15 -22
16 -12 3 -17 -1 -14 -10z"/>
<path d="M13900 11899 c0 -20 25 -55 32 -43 3 5 2 20 -3 34 -4 14 -8 18 -8 10
-1 -13 -2 -13 -11 0 -9 13 -10 13 -10 -1z"/>
<path d="M7529 11887 c-1 -7 -1 -18 0 -25 2 -10 -4 -12 -18 -7 -17 5 -21 2
-21 -15 0 -32 -45 -102 -80 -125 -16 -11 -30 -27 -30 -35 0 -9 -5 -21 -12 -28
-6 -6 -9 -15 -5 -19 9 -8 57 36 57 53 0 6 7 14 15 18 8 3 15 11 15 18 0 7 11
22 25 32 21 16 85 112 85 129 0 11 -30 16 -31 4z"/>
<path d="M10442 11852 c-21 -6 -22 -9 -8 -27 l15 -20 15 20 c26 34 22 39 -22
27z"/>
<path d="M13948 11793 c5 -21 7 -23 10 -9 2 10 0 22 -6 28 -6 6 -7 0 -4 -19z"/>
<path d="M13367 11682 c-4 -73 -13 -124 -25 -153 -18 -42 -24 -46 -93 -70 -72
-26 -75 -26 -106 -9 -18 10 -38 22 -45 27 -19 15 -58 26 -58 16 0 -16 83 -73
106 -73 12 0 27 -7 34 -16 39 -46 167 40 191 129 10 37 15 245 6 254 -2 2 -7
-46 -10 -105z"/>
<path d="M12574 11752 c-31 -25 -37 -70 -11 -84 18 -9 19 -11 4 -20 -10 -5
-17 -21 -17 -37 0 -15 -6 -35 -13 -45 -12 -16 -14 -16 -26 -2 -20 24 -43 20
-39 -6 2 -18 10 -23 33 -23 20 0 31 -6 33 -17 2 -11 -3 -18 -11 -18 -19 0 -50
-47 -43 -65 8 -23 -23 -115 -39 -115 -24 0 -55 -42 -55 -76 0 -45 -22 -61 -55
-40 -30 20 -31 20 -39 1 -6 -18 27 -55 49 -55 8 0 15 7 15 15 0 8 4 15 9 15 5
0 16 3 25 6 11 4 16 1 16 -10 0 -9 -8 -16 -20 -16 -21 0 -28 -24 -10 -35 5 -3
28 0 50 6 43 13 58 39 45 78 -7 24 13 29 33 9 17 -17 35 4 35 41 0 17 6 32 14
35 7 3 13 12 13 21 0 8 10 32 23 53 12 20 28 49 34 63 11 27 7 75 -8 85 -14 8
-11 24 4 22 12 -3 12 7 1 70 -6 27 -4 32 14 32 11 0 22 7 25 14 4 11 16 13 43
9 49 -8 175 -70 192 -94 17 -25 95 -62 119 -57 15 3 13 9 -16 36 -18 18 -41
32 -51 32 -10 0 -40 16 -66 35 -27 20 -69 46 -94 58 -25 12 -63 35 -86 50 -22
15 -48 25 -56 22 -8 -3 -21 1 -28 10 -16 19 -20 19 -46 -3z m21 -309 c4 -45
-11 -64 -30 -39 -10 14 -12 23 -4 32 5 6 9 16 8 20 -3 18 1 26 12 22 7 -2 13
-18 14 -35z"/>
<path d="M13970 11680 c0 -11 4 -20 9 -20 5 0 7 9 4 20 -3 11 -7 20 -9 20 -2
0 -4 -9 -4 -20z"/>
<path d="M7335 11669 c-4 -6 -5 -12 -2 -15 2 -3 7 2 10 11 7 17 1 20 -8 4z"/>
<path d="M9044 11655 c11 -8 27 -15 36 -15 9 0 25 7 36 15 17 13 15 14 -36 14
-51 0 -53 -1 -36 -14z"/>
<path d="M9210 11600 c0 -5 5 -10 11 -10 5 0 7 5 4 10 -3 6 -8 10 -11 10 -2 0
-4 -4 -4 -10z"/>
<path d="M13670 11572 c0 -4 5 -46 11 -92 7 -59 7 -100 0 -135 -5 -27 -14 -84
-19 -125 -10 -83 -46 -170 -87 -210 -14 -14 -31 -31 -38 -38 -22 -24 -42 -42
-79 -73 -21 -17 -38 -35 -38 -40 0 -19 -105 -109 -126 -109 -17 0 -33 -20 -72
-87 -27 -49 -55 -111 -62 -140 -6 -29 -22 -63 -34 -76 -37 -40 -62 -124 -71
-238 -6 -84 -61 -236 -92 -254 -10 -5 -29 -21 -43 -35 -37 -38 -108 -83 -163
-104 -40 -15 -66 -17 -145 -12 -99 6 -184 16 -282 35 -265 51 -482 61 -595 27
-85 -26 -290 -33 -370 -12 -101 25 -158 48 -195 76 -19 15 -46 33 -60 40 -46
24 -130 102 -198 184 -85 104 -274 293 -332 334 -25 17 -63 40 -85 50 -22 11
-72 40 -112 65 -39 26 -82 51 -96 56 -13 5 -58 38 -99 73 -235 197 -387 315
-436 339 -26 13 -106 83 -198 175 -85 85 -182 174 -215 200 -60 46 -168 101
-226 114 -33 8 -177 -20 -220 -42 -37 -19 -26 -29 15 -14 20 8 57 17 82 20 59
6 197 -20 228 -45 14 -10 29 -19 35 -19 17 0 107 -69 140 -108 99 -114 399
-389 514 -472 51 -37 149 -119 248 -209 33 -30 102 -86 154 -125 195 -147 306
-226 321 -231 21 -7 184 -176 230 -239 72 -97 164 -198 219 -239 129 -96 141
-103 234 -127 86 -23 189 -25 341 -6 171 22 371 -5 479 -63 33 -17 62 -29 67
-26 10 6 70 -17 70 -27 0 -4 11 -8 24 -8 14 0 28 -5 32 -11 12 -20 108 -59
144 -59 19 0 49 4 65 8 17 5 44 5 60 1 17 -4 24 -7 18 -8 -30 -3 -9 -16 26
-17 30 -1 38 2 34 12 -3 8 -1 14 3 15 5 0 18 3 29 6 11 2 35 7 54 10 29 5 33
3 28 -11 -4 -10 -1 -16 9 -16 8 0 12 5 9 10 -3 6 4 14 17 19 13 5 34 19 47 30
18 16 33 20 52 16 22 -5 31 -1 44 19 16 23 73 52 83 41 3 -3 -3 -12 -14 -19
-14 -11 -16 -17 -7 -26 13 -14 33 -5 33 15 0 7 10 22 23 32 12 10 31 34 41 53
11 19 35 51 55 71 53 53 61 65 61 93 0 15 8 30 19 35 27 15 34 41 16 61 -16
18 -20 67 -7 88 5 7 16 10 25 6 13 -5 17 0 17 20 0 29 -3 30 -31 16 -17 -9
-19 -7 -20 17 -1 15 -1 32 0 37 2 10 2 42 -2 170 -2 89 -20 112 -36 49 -17
-68 -26 -164 -31 -338 -3 -84 -17 -127 -62 -191 -53 -75 -187 -154 -320 -189
-29 -7 -87 -22 -128 -33 -103 -27 -163 -35 -191 -23 -13 5 -42 13 -64 19 -92
23 -161 45 -180 57 -11 8 -51 23 -90 36 -38 12 -86 29 -105 39 -19 9 -81 23
-138 30 -56 7 -99 17 -95 21 12 12 147 14 233 5 41 -5 94 -18 118 -29 31 -14
53 -18 85 -13 30 4 51 1 72 -10 20 -11 70 -19 145 -24 63 -4 128 -13 143 -19
46 -18 99 -13 150 15 27 14 56 23 65 19 10 -3 26 5 43 25 15 16 36 30 46 30
11 0 26 15 38 36 11 20 37 53 58 73 21 20 43 45 49 56 20 36 39 119 44 195 5
79 39 244 55 270 26 43 69 143 80 184 6 26 18 50 25 53 8 3 14 11 14 19 0 16
50 64 67 64 17 0 16 -11 -2 -46 -30 -57 -14 -69 42 -31 18 12 37 33 42 47 5
14 30 48 55 75 26 28 67 79 92 115 24 36 59 85 77 110 58 79 79 143 85 263 5
112 -7 201 -35 270 -14 33 -33 50 -33 29z m-171 -708 c-12 -13 -26 -24 -31
-24 -17 0 -7 28 19 56 24 25 28 27 31 11 2 -11 -6 -30 -19 -43z m-2244 -1048
c27 -13 58 -27 68 -30 30 -10 20 -29 -13 -23 -42 9 -123 50 -128 65 -6 18 17
15 73 -12z m445 -36 c11 -7 9 -11 -14 -19 -28 -11 -46 -7 -46 9 0 7 13 13 40
19 3 0 12 -3 20 -9z"/>
<path d="M7279 11551 c-23 -24 -32 -41 -20 -41 11 0 46 48 40 54 -2 2 -11 -4
-20 -13z"/>
<path d="M10657 11534 c-11 -11 37 -76 72 -99 20 -12 61 -48 91 -79 30 -31 59
-56 63 -56 5 0 30 -14 55 -31 37 -25 111 -59 127 -59 2 0 2 7 1 14 -3 19 -38
47 -95 76 -25 12 -58 36 -74 52 -23 22 -32 26 -43 17 -11 -9 -16 -6 -24 15 -5
14 -16 26 -25 26 -8 0 -15 6 -15 13 -1 6 -8 21 -18 32 -24 28 -108 85 -115 79z"/>
<path d="M14313 11528 c3 -9 9 -32 12 -52 8 -38 18 -50 53 -60 18 -6 22 -3 22
13 0 11 -4 23 -10 26 -5 3 -10 16 -10 28 -1 33 -24 59 -39 44 -9 -9 -14 -9
-22 3 -9 13 -10 12 -6 -2z"/>
<path d="M9410 11469 c0 -5 5 -7 10 -4 6 3 10 8 10 11 0 2 -4 4 -10 4 -5 0
-10 -5 -10 -11z"/>
<path d="M9510 11376 c0 -9 5 -16 10 -16 6 0 10 4 10 9 0 6 -4 13 -10 16 -5 3
-10 -1 -10 -9z"/>
<path d="M9550 11348 c0 -9 5 -20 10 -23 13 -8 13 5 0 25 -8 13 -10 13 -10 -2z"/>
<path d="M13925 11310 c-3 -5 -1 -10 4 -10 6 0 11 5 11 10 0 6 -2 10 -4 10 -3
0 -8 -4 -11 -10z"/>
<path d="M9611 11271 c-9 -6 -7 -10 8 -14 12 -3 21 -1 21 3 0 14 -15 19 -29
11z"/>
<path d="M13994 11256 c-8 -35 -1 -60 19 -64 13 -3 17 3 17 26 0 59 -24 84
-36 38z"/>
<path d="M7726 11254 c-9 -24 -8 -26 16 -22 29 4 38 38 10 38 -11 0 -23 -7
-26 -16z"/>
<path d="M5740 11247 c0 -20 -45 -104 -71 -133 -11 -11 -19 -26 -19 -33 0 -6
-11 -22 -25 -34 -14 -13 -26 -38 -30 -62 l-6 -40 44 48 c43 46 64 56 83 37 6
-6 16 31 27 102 14 79 16 113 8 121 -8 8 -11 6 -11 -6z"/>
<path d="M12345 11240 c3 -5 10 -10 16 -10 5 0 9 5 9 10 0 6 -7 10 -16 10 -8
0 -12 -4 -9 -10z"/>
<path d="M10428 11213 c7 -3 16 -2 19 1 4 3 -2 6 -13 5 -11 0 -14 -3 -6 -6z"/>
<path d="M14068 11214 c-3 -5 -1 -31 4 -59 5 -27 12 -72 15 -100 3 -27 8 -53
11 -57 8 -9 -1 -161 -17 -283 -13 -98 -8 -153 15 -162 16 -6 19 -39 4 -48 -5
-3 -10 -17 -10 -30 0 -42 -42 -155 -87 -234 -36 -64 -133 -181 -150 -181 -13
0 -79 -36 -95 -52 -21 -21 -83 -24 -113 -5 -40 24 -106 91 -104 106 3 36 -2
41 -39 41 -38 0 -72 -23 -72 -48 0 -6 -8 -9 -17 -6 -10 3 -6 -4 10 -16 15 -12
27 -32 27 -44 0 -12 6 -30 13 -41 23 -36 38 -93 42 -167 6 -91 11 -115 42
-208 30 -90 72 -159 118 -194 37 -29 54 -34 35 -11 -10 12 -10 15 0 15 21 0
40 -33 28 -47 -8 -10 -6 -13 5 -13 27 0 40 28 34 77 -4 39 -1 52 17 74 17 20
25 24 32 14 7 -10 18 -3 45 26 20 21 33 39 30 39 -8 1 72 39 82 40 4 0 -2 -18
-13 -40 -11 -21 -20 -47 -20 -58 0 -10 -5 -23 -10 -28 -12 -12 1 -49 33 -96
24 -37 33 -35 48 10 12 38 39 81 50 82 4 0 9 -9 12 -20 11 -42 101 -52 113
-12 19 58 41 93 74 118 21 16 35 34 33 41 -3 7 2 16 11 19 9 3 24 23 33 43 9
20 23 40 31 44 7 5 12 18 11 30 -3 26 28 125 46 147 14 18 35 118 35 169 0 20
7 47 16 59 11 16 13 26 5 35 -11 14 -4 57 10 57 5 0 8 10 8 23 -2 32 36 166
57 206 14 25 16 35 7 38 -7 3 -13 20 -13 39 0 19 -4 34 -10 34 -5 0 -10 15
-10 33 0 19 -9 60 -20 92 -12 36 -19 75 -16 101 4 47 0 52 -114 144 -30 24
-61 52 -68 62 -26 35 -48 40 -89 17 -21 -12 -45 -27 -54 -35 -8 -8 -23 -14
-31 -14 -9 0 -19 -6 -22 -12 -3 -7 -3 -1 1 15 3 15 0 33 -6 40 -7 9 -7 23 1
49 6 20 8 51 4 69 -7 38 -40 87 -48 73z m288 -402 c8 -12 10 -23 6 -26 -15 -9
-13 -223 2 -238 14 -14 11 -29 -14 -65 -16 -25 -32 -31 -24 -9 5 13 -15 25
-52 30 -7 1 -17 5 -20 9 -14 13 -24 7 -39 -25 -10 -21 -14 -25 -11 -11 2 13
-4 34 -15 47 -10 13 -19 29 -19 36 0 7 -6 5 -16 -5 -28 -28 -29 -6 0 23 18 20
24 34 20 47 -4 11 -3 16 2 12 5 -3 9 12 7 35 -2 37 -1 39 12 22 15 -19 15 -19
30 0 8 11 15 26 15 33 0 16 37 102 52 120 12 15 40 -1 64 -35z m-136 -412 c0
-13 -5 -18 -14 -14 -8 3 -12 12 -9 20 8 21 23 17 23 -6z m60 -155 c5 -13 6
-33 3 -45 -5 -21 -7 -20 -19 10 -17 39 -18 74 -3 65 5 -4 14 -17 19 -30z"/>
<path d="M14220 10610 c-9 -6 -10 -10 -3 -10 6 0 15 5 18 10 8 12 4 12 -15 0z"/>
<path d="M7682 11194 c-10 -12 -10 -14 2 -14 17 0 30 16 19 23 -5 3 -14 -1
-21 -9z"/>
<path d="M12250 11195 c0 -16 27 -32 37 -22 5 6 -21 37 -31 37 -3 0 -6 -7 -6
-15z"/>
<path d="M8813 11170 c-77 -34 -132 -80 -199 -163 -37 -45 -69 -89 -72 -97 -3
-8 -11 -19 -18 -25 -14 -11 -38 -51 -129 -214 -12 -20 -39 -62 -60 -95 -22
-32 -45 -67 -51 -77 -6 -10 -17 -27 -26 -36 -27 -33 -138 -221 -138 -235 0 -8
12 -25 26 -39 26 -24 26 -24 40 -4 8 11 39 54 69 95 30 41 60 86 67 100 45 91
220 292 283 325 97 52 110 60 123 78 15 20 52 23 71 5 10 -11 15 -9 26 5 7 10
16 14 19 9 3 -5 31 -12 61 -14 37 -3 60 -10 68 -22 7 -9 30 -23 52 -30 22 -8
44 -23 50 -35 6 -12 29 -31 52 -42 22 -11 44 -27 47 -35 3 -8 22 -24 42 -36
19 -11 40 -32 45 -45 5 -14 18 -27 29 -30 18 -5 80 -86 80 -105 0 -4 17 -16
38 -25 30 -15 38 -24 40 -49 2 -18 11 -39 20 -47 132 -122 220 -225 266 -312
18 -33 42 -64 53 -69 12 -6 30 -29 42 -53 11 -24 25 -43 30 -43 5 0 13 -10 16
-22 13 -45 35 -86 50 -92 8 -3 15 -15 15 -27 0 -12 12 -30 26 -41 17 -14 24
-27 21 -40 -4 -14 2 -22 19 -28 13 -5 24 -14 24 -20 0 -16 -30 -12 -36 5 -4 8
-10 15 -15 15 -15 0 -87 54 -93 70 -17 42 -40 72 -61 80 -12 5 -25 20 -29 35
-4 14 -18 31 -32 37 -13 6 -27 22 -30 34 -3 12 -14 30 -25 40 -10 9 -19 22
-19 27 0 5 -10 20 -22 32 -13 13 -28 29 -34 37 -6 7 -27 27 -46 45 -20 17 -38
37 -40 44 -3 8 -11 10 -22 6 -15 -6 -16 -10 -6 -22 7 -8 19 -15 26 -15 8 0 14
-4 14 -9 0 -6 23 -37 50 -70 28 -33 50 -64 50 -69 0 -5 9 -17 20 -27 11 -10
20 -24 20 -32 0 -22 -46 -15 -66 12 -14 19 -21 22 -32 12 -11 -9 -17 -8 -26 4
-16 22 -54 41 -67 33 -6 -3 -18 1 -28 10 -17 15 -20 15 -34 1 -9 -8 -25 -15
-36 -15 -35 0 -33 -18 9 -60 38 -38 113 -133 135 -169 6 -9 20 -31 33 -49 25
-34 83 -144 79 -149 -2 -1 -18 17 -37 40 -18 23 -53 58 -77 77 -24 19 -50 41
-58 48 -15 14 -35 8 -35 -9 0 -5 20 -35 45 -67 153 -195 213 -275 236 -314 47
-78 152 -262 170 -298 9 -19 42 -63 73 -97 54 -59 67 -83 46 -83 -5 0 -19 9
-30 20 -11 11 -25 20 -30 20 -33 0 85 -124 128 -135 14 -3 38 -15 53 -25 14
-11 28 -17 31 -15 3 3 30 0 61 -6 32 -5 63 -6 70 -2 6 4 26 9 42 10 69 4 182
25 214 40 19 9 45 13 62 9 22 -4 31 -1 39 14 13 25 26 26 32 2 4 -13 -3 -22
-26 -32 -17 -7 -37 -20 -43 -28 -7 -8 -25 -16 -40 -18 -46 -4 -63 -10 -75 -22
-7 -7 -18 -12 -26 -12 -8 0 -20 -7 -26 -16 -10 -13 -16 -13 -38 -4 -19 9 -31
9 -47 1 -12 -7 -25 -9 -30 -6 -5 3 -11 0 -13 -7 -2 -6 -21 -13 -42 -14 -44 -4
-69 -21 -61 -42 6 -16 -11 -42 -29 -42 -7 0 -16 14 -21 31 -15 48 -115 98
-115 58 0 -5 9 -9 20 -9 11 0 20 -4 20 -10 0 -5 -7 -10 -15 -10 -8 0 -15 -4
-15 -10 0 -5 7 -7 15 -4 8 4 15 2 15 -4 0 -13 -42 -10 -57 5 -7 6 -13 18 -13
27 0 20 -19 31 -33 17 -15 -15 -29 -14 -52 3 -15 11 -17 17 -8 28 21 25 4 54
-40 69 -70 22 -114 66 -130 131 -4 15 -16 32 -27 38 -11 6 -20 16 -20 21 0 17
-44 109 -52 109 -4 0 -5 -7 -2 -15 4 -8 3 -22 0 -31 -5 -13 -9 -14 -21 -4 -8
7 -15 19 -15 27 0 17 -89 168 -131 223 -15 20 -46 71 -69 115 -23 44 -51 92
-61 107 -11 15 -29 47 -39 71 -11 25 -27 50 -35 57 -8 7 -15 18 -15 24 0 7
-13 25 -30 41 -16 16 -30 34 -30 41 0 6 -7 14 -15 18 -8 3 -15 12 -15 20 0 7
-7 16 -15 20 -8 3 -13 11 -10 18 2 7 -14 25 -36 41 -22 15 -44 38 -49 51 -5
13 -14 27 -20 31 -6 4 -9 19 -5 33 4 21 -2 34 -23 57 -15 17 -40 51 -55 78
-15 26 -32 47 -36 47 -5 0 -30 20 -55 45 -26 25 -56 45 -65 45 -10 0 -24 6
-30 14 -24 29 -195 47 -258 27 -44 -14 -79 -9 -67 10 5 8 -6 9 -37 4 -44 -7
-59 -18 -59 -42 0 -16 -12 -17 -28 -1 -9 9 -13 7 -18 -5 -3 -9 -10 -14 -15
-11 -30 18 17 -50 71 -103 30 -29 40 -33 65 -28 17 4 63 6 104 5 74 -1 102
-12 143 -52 20 -19 24 -33 8 -23 -5 3 -10 1 -10 -4 0 -6 7 -11 15 -11 8 0 15
-9 15 -19 0 -10 6 -21 14 -24 8 -3 12 -15 9 -31 -3 -15 3 -42 15 -65 11 -21
19 -41 16 -44 -2 -2 3 -10 11 -17 12 -10 19 -10 27 -2 14 14 32 16 23 3 -3 -5
-1 -12 4 -15 5 -3 11 3 14 14 3 11 10 20 15 20 19 0 131 -129 156 -181 15 -28
42 -69 61 -91 18 -22 43 -59 54 -82 11 -22 41 -67 68 -99 26 -32 75 -91 108
-131 33 -41 94 -114 135 -163 41 -48 101 -123 134 -166 54 -71 58 -80 53 -117
-3 -22 -26 -84 -52 -137 -46 -95 -47 -96 -32 -132 52 -123 65 -151 76 -165 7
-8 14 -22 15 -31 3 -17 83 -105 97 -105 4 0 9 -11 13 -24 5 -21 13 -24 84 -30
80 -6 203 2 212 14 3 4 24 19 46 33 23 14 67 46 98 71 31 26 64 46 73 46 10 0
24 9 30 20 15 23 73 55 73 40 0 -6 -15 -20 -34 -31 -19 -11 -42 -31 -51 -45
-9 -14 -27 -29 -41 -34 -31 -12 -135 -83 -153 -104 -7 -9 -21 -16 -29 -16 -9
0 -30 -14 -48 -31 -20 -19 -45 -32 -69 -35 -22 -3 -44 -8 -49 -13 -18 -14 -77
-19 -118 -8 -23 6 -56 28 -87 58 -28 27 -54 49 -58 49 -15 1 -133 271 -133
305 0 8 -4 15 -8 15 -4 0 -62 -53 -128 -117 -125 -124 -197 -186 -354 -306
-120 -92 -121 -98 -52 -235 62 -123 78 -170 63 -185 -6 -6 -11 -34 -11 -63 0
-43 5 -57 30 -85 16 -19 30 -42 30 -51 0 -9 6 -21 14 -25 8 -4 30 -40 49 -80
40 -83 74 -133 89 -133 6 0 33 -14 61 -31 40 -24 65 -32 122 -36 91 -7 161 13
246 69 60 39 511 479 552 538 19 28 172 190 312 333 178 181 226 214 480 333
17 7 50 17 75 20 25 4 50 11 57 16 6 5 112 13 235 18 321 12 434 -4 644 -95
22 -9 35 -10 42 -3 20 20 81 -1 102 -35 28 -45 26 -51 -24 -66 -49 -14 -61
-12 -156 29 -110 48 -302 81 -470 81 -245 1 -366 -21 -544 -98 -66 -29 -184
-99 -239 -143 -129 -102 -284 -252 -377 -364 -33 -39 -66 -79 -74 -88 -8 -9
-23 -29 -32 -45 -17 -26 -83 -110 -215 -273 -202 -249 -352 -371 -532 -430
-58 -19 -85 -22 -175 -18 -99 3 -112 6 -171 38 -78 42 -104 73 -152 186 -29
68 -39 107 -44 173 -4 47 -9 95 -12 106 -7 36 -6 110 2 129 6 13 3 23 -6 30
-14 11 -59 174 -59 214 0 11 -4 23 -8 26 -5 3 -9 18 -10 33 -1 36 -19 83 -31
83 -5 0 -52 -20 -103 -45 -103 -49 -203 -71 -256 -56 -34 10 -102 73 -183 171
-28 34 -61 66 -74 72 -12 5 -28 21 -33 33 -17 37 -124 146 -156 160 -29 12
-31 11 -61 -29 -17 -22 -34 -49 -38 -58 -8 -23 -20 -23 -41 1 -20 22 -9 56 22
65 26 9 76 63 64 70 -5 3 -29 -11 -53 -32 -43 -38 -80 -58 -78 -44 0 4 25 26
55 50 30 24 54 49 54 56 0 7 -15 30 -33 51 l-33 37 -34 -18 c-52 -28 -107 -72
-175 -138 -76 -75 -89 -86 -102 -86 -5 0 -27 -20 -49 -45 -21 -26 -58 -58 -81
-73 -24 -15 -43 -30 -43 -34 0 -11 -74 -78 -86 -78 -7 0 -14 -9 -17 -20 -3
-11 -18 -26 -34 -33 -33 -13 -80 -64 -109 -117 -10 -19 -29 -43 -42 -53 -12
-10 -20 -22 -17 -27 3 -4 -15 -37 -40 -73 -25 -37 -45 -69 -45 -72 0 -3 -13
-24 -30 -47 -16 -22 -30 -52 -30 -66 0 -13 -36 -97 -80 -186 -86 -171 -96
-190 -172 -304 -26 -40 -48 -75 -48 -78 0 -7 -21 -26 -45 -40 -11 -7 -19 -20
-18 -30 5 -39 -20 -110 -41 -120 -16 -7 -20 -16 -18 -37 4 -32 -12 -55 -45
-68 -24 -9 -29 -25 -14 -48 18 -28 -76 -181 -111 -181 -19 0 -25 -25 -8 -35 6
-4 -3 -23 -21 -45 -17 -21 -28 -43 -25 -49 4 -5 -5 -18 -19 -27 -14 -9 -25
-22 -25 -29 0 -8 -10 -15 -22 -17 -28 -4 -36 -28 -9 -28 27 0 38 -20 17 -32
-9 -5 -16 -18 -16 -28 0 -11 -4 -20 -10 -20 -5 0 -10 12 -10 26 0 30 -23 28
-29 -2 -2 -10 -12 -25 -22 -32 -15 -10 -17 -17 -9 -32 14 -25 13 -30 -6 -30
-9 0 -21 -14 -27 -30 -7 -19 -18 -30 -30 -30 -12 0 -17 -5 -14 -14 6 -15 -48
-80 -73 -89 -11 -3 -8 -8 11 -15 27 -11 39 -30 39 -61 0 -26 132 -39 166 -16
13 9 24 11 24 5 0 -5 16 -10 35 -10 29 0 36 4 41 25 8 33 22 32 26 -2 l3 -28
217 -3 217 -2 41 64 c26 41 46 63 55 60 8 -3 16 3 20 16 4 12 12 19 18 17 13
-4 10 -42 -5 -70 -8 -15 -12 -16 -24 -6 -12 10 -17 8 -29 -7 -16 -21 -20 -64
-6 -64 5 0 16 10 25 23 16 21 16 21 6 0 -8 -16 -6 -22 7 -27 9 -4 606 -10
1327 -13 1429 -6 1473 -5 1495 43 6 14 18 27 26 30 8 4 15 11 16 18 0 6 16 31
35 56 18 25 44 65 57 90 58 111 83 150 98 150 13 0 4 -61 -10 -69 -16 -10 -4
-61 14 -61 8 0 23 12 35 27 11 15 34 35 51 45 16 10 33 26 36 36 4 9 16 31 29
47 12 17 25 47 28 68 4 23 21 54 42 76 19 21 34 45 34 53 0 19 37 95 50 103
12 8 13 52 1 59 -4 3 -19 -6 -31 -19 -13 -14 -27 -25 -32 -25 -17 0 -7 44 15
65 24 24 58 79 67 110 3 11 12 20 20 20 8 0 25 20 37 45 13 25 44 66 70 92 61
60 83 86 83 97 0 5 16 27 36 48 21 21 50 58 65 82 15 24 48 63 73 88 25 25 46
48 46 53 0 11 103 100 116 100 17 0 84 77 84 96 0 8 15 21 33 29 18 7 45 25
60 39 15 14 34 26 41 26 8 0 16 7 20 15 3 8 10 15 17 15 6 0 28 14 49 30 21
17 44 30 51 30 7 0 33 13 58 29 86 55 202 81 358 81 125 0 230 -22 330 -70 46
-22 88 -40 92 -40 5 0 28 -15 52 -33 24 -18 57 -38 74 -46 34 -14 120 -75 203
-142 31 -25 100 -76 152 -114 52 -38 127 -92 165 -120 119 -88 446 -304 512
-338 35 -19 39 -16 59 41 7 17 8 32 3 32 -5 0 -9 5 -9 11 0 5 4 8 9 4 10 -6
47 39 74 90 69 129 227 461 227 478 0 11 7 28 16 38 21 23 54 113 46 126 -4 5
-61 13 -126 17 -71 4 -142 15 -175 25 -31 11 -83 26 -116 36 -33 9 -71 25 -85
35 -14 9 -59 32 -100 50 -41 18 -88 43 -103 56 -15 13 -60 40 -100 59 -40 20
-90 48 -113 63 -49 32 -96 62 -146 93 -20 12 -42 35 -49 50 -6 16 -34 44 -63
63 -105 70 -175 146 -134 146 18 0 140 -70 176 -102 18 -15 52 -37 75 -49 23
-12 59 -37 80 -55 20 -19 42 -34 48 -34 7 0 37 -17 68 -37 152 -101 441 -236
469 -219 5 3 28 -2 53 -11 24 -8 70 -15 101 -14 31 0 60 -4 63 -9 10 -16 65
-12 71 5 9 22 44 19 44 -4 0 -23 25 -45 40 -36 6 4 15 18 20 31 6 16 20 27 40
30 16 4 34 12 39 18 13 15 53 144 81 260 12 49 31 115 41 145 56 160 70 207
99 331 18 74 42 176 55 225 40 151 55 374 34 477 -17 79 -26 94 -101 148 -37
27 -68 54 -68 58 0 13 -187 162 -204 162 -7 0 -25 -15 -40 -34 -16 -21 -38
-37 -58 -41 -18 -4 -58 -21 -88 -37 -45 -24 -59 -27 -79 -18 -33 15 -55 -4
-47 -43 9 -45 -8 -67 -53 -67 -30 0 -40 4 -44 20 -3 11 -12 20 -21 20 -16 0
-46 -48 -46 -74 0 -31 -122 -67 -230 -68 -140 -1 -355 26 -413 51 -27 12 -59
21 -72 21 -12 0 -42 9 -66 19 -24 11 -66 22 -94 26 -27 4 -81 19 -120 34 -38
15 -97 37 -130 48 -33 11 -94 32 -135 46 -181 62 -207 70 -240 73 -19 1 -71 8
-115 14 -44 7 -110 13 -147 15 -71 4 -209 30 -237 44 -9 5 -33 11 -53 15 -79
14 -165 65 -237 139 -126 131 -171 181 -171 194 0 14 -130 147 -182 186 -20
15 -43 27 -52 27 -8 0 -20 16 -26 35 -7 20 -18 35 -27 35 -10 0 -13 -6 -9 -16
8 -20 -2 -14 -96 60 -43 34 -78 67 -78 74 0 6 -6 12 -13 12 -7 0 -42 28 -78
63 -99 94 -170 158 -209 188 -19 15 -114 105 -210 201 -96 96 -190 183 -208
193 -25 15 -32 25 -28 41 7 26 -19 53 -36 36 -10 -10 -100 51 -143 98 -27 30
-133 88 -213 116 -86 30 -188 32 -249 4z m122 -50 c3 -5 19 -10 35 -10 25 0
49 -15 39 -25 -4 -3 -132 16 -138 21 -1 1 0 7 4 13 8 14 52 14 60 1z m686
-477 c13 -16 12 -17 -3 -4 -10 7 -18 15 -18 17 0 8 8 3 21 -13z m463 -1475
c10 -39 6 -44 -14 -19 -23 27 -25 41 -6 41 7 0 16 -10 20 -22z m122 -175 c8
-17 23 -34 32 -37 9 -3 24 -9 32 -14 48 -29 181 -88 185 -83 2 4 23 6 47 5 24
-1 70 -2 102 -3 72 -1 65 -19 -9 -26 -26 -3 -54 -10 -62 -16 -8 -7 -55 -11
-121 -11 -94 0 -114 4 -153 25 -25 13 -56 34 -69 47 -22 22 -22 24 -5 36 16
12 21 12 35 -1 16 -15 40 -20 40 -9 0 19 -24 45 -37 40 -9 -4 -17 1 -20 13 -3
11 -13 21 -24 24 -11 3 -19 14 -19 25 0 11 -7 22 -15 26 -8 3 -15 15 -15 27 0
21 1 21 30 -7 17 -16 37 -43 46 -61z m-46 -43 c0 -5 -4 -10 -10 -10 -5 0 -10
5 -10 10 0 6 5 10 10 10 6 0 10 -4 10 -10z m-440 -200 c0 -5 -4 -10 -10 -10
-5 0 -10 5 -10 10 0 6 5 10 10 10 6 0 10 -4 10 -10z m1585 0 c-3 -5 -12 -7
-20 -3 -21 7 -19 13 6 13 11 0 18 -4 14 -10z m143 -9 c6 -1 12 -6 12 -11 0 -6
-11 -8 -27 -4 -36 8 -51 21 -21 18 13 -1 29 -3 36 -3z m-1313 -61 c17 -11 38
-20 47 -20 18 0 34 -18 24 -27 -8 -8 -87 26 -111 49 -27 25 1 24 40 -2z m655
-5 c0 -8 -6 -15 -14 -15 -20 0 -29 17 -14 23 22 9 28 7 28 -8z m-50 -25 c0 -5
-4 -10 -10 -10 -5 0 -10 5 -10 10 0 6 5 10 10 10 6 0 10 -4 10 -10z m-440 -26
c0 -2 -9 -4 -21 -4 -11 0 -18 4 -14 10 5 8 35 3 35 -6z m620 -59 c0 -2 -21
-14 -47 -26 -27 -12 -56 -28 -65 -37 -16 -14 -18 -14 -18 2 0 9 14 22 33 30
87 37 97 41 97 31z m-185 -90 c-11 -8 -25 -19 -32 -25 -15 -12 -43 -13 -43 -1
0 10 59 41 80 40 11 0 10 -3 -5 -14z m-140 -87 c-27 -24 -67 -54 -89 -67 -23
-13 -52 -33 -65 -43 -13 -10 -26 -16 -29 -13 -8 8 50 65 65 65 8 0 25 11 39
25 20 20 107 73 123 75 2 0 -18 -19 -44 -42z m-2576 -539 c-8 -5 -21 -9 -29
-9 -9 0 -32 -11 -52 -25 -42 -28 -58 -31 -58 -11 0 8 17 20 38 27 20 6 42 15
47 19 14 11 48 18 59 12 4 -2 2 -8 -5 -13z m-505 -24 c-7 -29 -5 -30 42 -10
34 14 38 13 65 -6 45 -32 62 -79 28 -79 -5 0 -26 -18 -46 -41 -29 -32 -42 -40
-62 -36 -14 3 -35 -2 -47 -10 -13 -8 -29 -11 -36 -7 -7 5 -41 9 -76 10 -35 1
-66 5 -69 8 -19 18 15 59 103 124 53 40 99 72 101 72 2 0 1 -11 -3 -25z m324
-25 c15 -25 10 -35 -29 -55 -52 -28 -58 3 -11 55 22 24 25 24 40 0z m3617
-130 c-3 -5 -15 -10 -26 -10 -11 0 -17 5 -14 10 3 6 15 10 26 10 11 0 17 -4
14 -10z m-130 -20 c0 -13 -13 -18 -95 -37 -14 -3 -32 -11 -40 -17 -17 -13 -34
-21 -134 -61 -37 -16 -80 -38 -95 -50 -14 -12 -44 -32 -66 -45 -22 -13 -55
-37 -72 -53 -18 -17 -36 -28 -39 -24 -11 11 14 57 31 57 9 0 42 25 73 55 50
48 99 80 152 99 8 3 22 10 30 14 71 41 124 63 143 61 12 -1 29 1 37 4 35 13
46 16 60 14 8 -1 15 -9 15 -17z m-3899 -85 c8 -20 -14 -52 -83 -122 l-58 -58
-3 33 c-4 39 -20 41 -62 6 -21 -18 -34 -24 -41 -17 -7 7 4 26 35 59 36 38 48
46 55 35 11 -17 31 -6 31 18 0 10 11 23 25 29 14 6 25 16 25 22 0 16 70 12 76
-5z m119 -4 c-3 -6 -14 -11 -23 -11 -15 1 -15 2 2 15 21 16 32 13 21 -4z m-45
-26 c0 -2 -10 -9 -22 -15 -22 -11 -22 -10 -4 4 21 17 26 19 26 11z m3240 -202
c0 -25 -44 -55 -72 -49 -21 4 -28 1 -28 -9 0 -8 5 -15 11 -15 8 0 8 -5 -1 -15
-19 -23 -30 -18 -30 14 0 33 20 54 44 45 9 -3 16 -1 16 5 0 6 -4 11 -10 11
-22 0 -8 22 22 35 34 14 47 7 48 -22z m-130 -113 c0 -5 -4 -10 -10 -10 -5 0
-10 5 -10 10 0 6 5 10 10 10 6 0 10 -4 10 -10z m-3440 -49 c0 -13 -26 -32 -33
-24 -8 7 11 33 24 33 5 0 9 -4 9 -9z m3350 -38 c-1 -19 -110 -143 -126 -143
-5 0 -22 -23 -37 -50 -16 -28 -32 -50 -37 -50 -5 0 -21 -18 -37 -39 -15 -22
-38 -45 -50 -52 -12 -6 -19 -17 -17 -23 5 -12 -35 -66 -49 -66 -4 0 -7 12 -7
26 0 40 161 234 195 234 7 0 16 8 19 17 9 23 64 98 98 134 30 33 48 37 48 12z
m-2730 -42 c0 -5 -10 -18 -23 -28 -12 -10 -36 -36 -52 -58 -16 -22 -59 -74
-95 -116 -87 -102 -200 -247 -200 -256 0 -5 -23 -33 -50 -63 -38 -43 -49 -51
-50 -35 0 26 44 91 71 106 19 10 19 12 5 28 -13 15 -14 20 -1 44 8 15 29 42
47 60 18 18 81 83 140 145 59 61 110 112 115 112 4 0 24 16 43 35 36 35 50 42
50 26z m-310 -80 c0 -11 -13 -29 -29 -41 -17 -11 -33 -30 -37 -43 -11 -35 -55
-97 -69 -97 -14 0 -25 -21 -25 -48 -1 -16 -33 -62 -43 -62 -8 0 5 43 17 60 7
8 18 29 26 45 8 17 21 36 28 43 6 7 12 22 12 33 0 10 4 19 9 19 4 0 25 25 45
55 37 55 66 71 66 36z m20 -59 c0 -11 -22 -32 -32 -32 -5 0 -4 9 2 20 11 20
30 28 30 12z m-40 -101 c0 -5 -7 -14 -15 -21 -12 -10 -15 -10 -15 2 0 8 3 18
7 21 9 10 23 9 23 -2z m2690 -173 c0 -10 -7 -21 -15 -24 -8 -4 -15 -12 -15
-19 0 -19 -82 -101 -108 -107 -20 -6 -21 -4 -9 16 6 12 36 57 66 99 43 60 57
74 68 66 7 -6 13 -20 13 -31z m-2929 -71 c-10 -9 -11 -8 -5 6 3 10 9 15 12 12
3 -3 0 -11 -7 -18z m2761 -122 c0 -5 -5 -11 -11 -13 -6 -2 -11 4 -11 13 0 9 5
15 11 13 6 -2 11 -8 11 -13z m-2922 -5 c0 -5 -7 -10 -16 -10 -8 0 -12 5 -9 10
3 6 10 10 16 10 5 0 9 -4 9 -10z m2890 -19 c0 -13 -29 -35 -37 -28 -7 8 15 37
28 37 5 0 9 -4 9 -9z m-2948 -41 c-9 -16 -20 -30 -24 -30 -5 0 -8 -7 -8 -15 0
-8 -4 -15 -10 -15 -20 0 -10 57 13 73 36 26 48 21 29 -13z m2908 -4 c0 -2 -7
-9 -15 -16 -13 -11 -14 -10 -9 4 5 14 24 23 24 12z m-93 -103 c-9 -9 -20 -13
-24 -9 -4 4 1 14 11 22 25 18 35 8 13 -13z m-2819 -40 c-2 -5 -9 -19 -15 -33
-6 -14 -37 -79 -68 -145 -31 -66 -60 -129 -65 -140 -44 -104 -60 -135 -69
-135 -17 0 -13 15 20 87 17 38 46 100 63 138 18 39 37 79 42 90 21 48 80 145
87 145 5 0 7 -3 5 -7z m2764 -11 c-14 -34 -40 -64 -51 -57 -7 4 -2 18 15 41
28 36 48 45 36 16z m388 -32 c0 -15 -7 -20 -25 -20 -27 0 -32 9 -13 28 18 18
38 14 38 -8z m-3535 -232 c-13 -46 -94 -208 -104 -208 -11 0 -2 29 23 79 7 14
26 54 42 88 28 61 52 85 39 41z m-281 -106 c-4 -9 -6 -20 -6 -24 1 -5 -2 -8
-8 -8 -14 0 -13 37 2 63 11 20 13 20 16 4 2 -10 0 -26 -4 -35z m-54 -169 c-17
-79 -35 -81 -27 -3 7 66 29 111 36 74 2 -10 -2 -42 -9 -71z m680 53 c0 -16
-18 -31 -27 -22 -8 8 5 36 17 36 5 0 10 -6 10 -14z m-599 -97 c-5 -13 -10 -19
-10 -12 -1 15 10 45 15 40 3 -2 0 -15 -5 -28z"/>
<path d="M10470 11170 c0 -5 7 -10 15 -10 8 0 15 5 15 10 0 6 -7 10 -15 10 -8
0 -15 -4 -15 -10z"/>
<path d="M12165 11170 c3 -5 8 -10 11 -10 2 0 4 5 4 10 0 6 -5 10 -11 10 -5 0
-7 -4 -4 -10z"/>
<path d="M9742 11143 c15 -15 31 -23 35 -19 4 4 -3 16 -17 26 -37 29 -49 24
-18 -7z"/>
<path d="M7620 11135 c-11 -13 -10 -14 4 -9 9 3 16 10 16 15 0 13 -6 11 -20
-6z"/>
<path d="M12122 11140 c-12 -5 -25 -16 -28 -25 -4 -8 -12 -15 -20 -15 -8 0
-14 -6 -14 -14 0 -9 -7 -12 -20 -9 -14 4 -20 0 -20 -11 0 -8 -13 -22 -29 -30
-16 -9 -34 -29 -39 -45 -7 -20 -20 -33 -36 -37 -27 -6 -33 -27 -17 -53 15 -23
55 0 56 30 0 17 6 24 20 24 11 0 35 9 53 20 26 16 32 25 27 42 -5 21 -2 23 30
23 37 0 54 21 69 83 7 29 4 31 -32 17z"/>
<path d="M12190 11135 c0 -8 5 -15 10 -15 6 0 10 7 10 15 0 8 -4 15 -10 15 -5
0 -10 -7 -10 -15z"/>
<path d="M10550 11109 c13 -17 33 -34 46 -39 13 -5 24 -14 24 -20 0 -5 17 -24
37 -42 21 -18 50 -45 66 -60 15 -15 42 -35 60 -45 18 -10 34 -20 37 -23 9 -10
63 -31 67 -26 2 2 -15 17 -39 34 -24 16 -59 47 -79 68 -20 22 -46 46 -59 54
-12 8 -33 25 -47 38 -14 13 -42 34 -63 47 -21 13 -41 29 -45 35 -3 5 -11 10
-16 10 -6 0 -1 -14 11 -31z"/>
<path d="M10146 11114 c-10 -26 -7 -69 6 -82 28 -28 78 -7 78 33 0 50 -68 90
-84 49z"/>
<path d="M13957 11103 c-11 -10 -8 -41 4 -49 15 -9 28 13 22 37 -5 20 -15 24
-26 12z"/>
<path d="M7450 11070 c0 -5 4 -10 9 -10 6 0 13 5 16 10 3 6 -1 10 -9 10 -9 0
-16 -4 -16 -10z"/>
<path d="M7228 11046 c-9 -13 -15 -26 -12 -29 7 -7 53 36 48 45 -8 13 -18 9
-36 -16z"/>
<path d="M14026 11061 c-4 -5 -2 -12 3 -15 5 -4 12 -2 15 3 4 5 2 12 -3 15 -5
4 -12 2 -15 -3z"/>
<path d="M7451 11037 c-13 -16 -5 -27 20 -27 22 0 32 27 13 34 -21 8 -20 8
-33 -7z"/>
<path d="M7350 11020 c0 -13 5 -18 15 -14 8 4 15 12 15 20 0 8 -7 14 -15 14
-8 0 -15 -9 -15 -20z"/>
<path d="M14031 11006 c-14 -35 -40 -45 -57 -21 -16 22 -15 23 -48 -39 -35
-66 -34 -76 9 -76 19 0 35 -2 35 -5 0 -18 -44 -88 -77 -123 -21 -22 -46 -51
-56 -65 -12 -17 -25 -23 -38 -20 -14 4 -19 0 -19 -15 0 -12 7 -25 16 -30 15
-8 15 -12 0 -40 -9 -17 -25 -34 -36 -37 -15 -5 -19 -12 -15 -26 4 -11 2 -26
-4 -33 -8 -9 -8 -22 -2 -37 5 -13 17 -60 26 -104 9 -44 21 -93 26 -110 6 -16
17 -51 25 -77 8 -27 19 -48 23 -48 21 0 98 75 116 113 11 23 30 56 42 73 12
17 34 67 48 110 24 72 25 84 15 135 -8 36 -10 91 -5 155 12 174 11 322 -2 335
-10 10 -14 6 -22 -15z"/>
<path d="M5890 10995 c-26 -31 5 -68 40 -46 12 8 12 13 0 35 -15 30 -23 32
-40 11z"/>
<path d="M11237 10979 c7 -7 15 -10 18 -7 3 3 -2 9 -12 12 -14 6 -15 5 -6 -5z"/>
<path d="M11509 10980 c-14 -4 -56 -11 -94 -15 -84 -9 -69 -25 23 -25 54 0
132 20 132 33 0 10 -36 13 -61 7z"/>
<path d="M11275 10970 c3 -5 15 -10 26 -10 11 0 17 5 14 10 -3 6 -15 10 -26
10 -11 0 -17 -4 -14 -10z"/>
<path d="M8077 10931 c-9 -16 -17 -32 -17 -37 0 -10 40 27 51 48 17 31 -15 21
-34 -11z"/>
<path d="M7444 10886 c-4 -18 -11 -25 -20 -22 -8 3 -14 1 -14 -3 0 -5 -3 -16
-6 -25 -5 -12 0 -16 19 -16 20 0 28 7 37 36 9 25 9 39 2 46 -8 8 -13 3 -18
-16z"/>
<path d="M7360 10890 c0 -5 5 -10 10 -10 6 0 10 5 10 10 0 6 -4 10 -10 10 -5
0 -10 -4 -10 -10z"/>
<path d="M11852 10878 c6 -18 28 -21 28 -4 0 9 -7 16 -16 16 -9 0 -14 -5 -12
-12z"/>
<path d="M5986 10853 c-3 -10 -9 -25 -12 -33 -4 -8 3 -5 15 7 22 23 28 43 12
43 -5 0 -11 -8 -15 -17z"/>
<path d="M7380 10850 c0 -5 5 -10 11 -10 5 0 7 5 4 10 -3 6 -8 10 -11 10 -2 0
-4 -4 -4 -10z"/>
<path d="M7842 10841 c-8 -4 -13 -11 -13 -15 3 -20 -2 -27 -34 -42 -36 -17
-49 -54 -20 -54 8 0 15 5 15 10 0 6 11 22 25 36 51 51 67 91 27 65z"/>
<path d="M10900 10840 c0 -5 9 -10 20 -10 11 0 20 5 20 10 0 6 -9 10 -20 10
-11 0 -20 -4 -20 -10z"/>
<path d="M11795 10816 c-40 -14 -71 -47 -67 -69 3 -16 6 -15 27 7 13 15 35 26
48 26 25 0 45 27 30 40 -4 3 -22 2 -38 -4z"/>
<path d="M5860 10730 c-53 -69 -65 -80 -88 -78 -22 2 -28 -2 -30 -22 -5 -33
-20 -50 -38 -43 -9 3 -14 -1 -14 -11 0 -23 76 -101 84 -87 4 6 16 11 26 11 11
0 35 14 54 31 24 21 42 29 54 24 16 -4 23 3 36 36 21 52 8 71 -25 40 -36 -33
-45 -9 -14 38 31 46 49 53 39 16 -7 -27 7 -33 24 -12 6 6 13 24 17 40 6 21 4
27 -9 27 -19 0 -22 26 -3 34 14 6 -18 36 -39 36 -7 0 -41 -36 -74 -80z m50
-134 c0 -3 -4 -8 -10 -11 -5 -3 -10 -1 -10 4 0 6 5 11 10 11 6 0 10 -2 10 -4z"/>
<path d="M11027 10783 c-13 -12 -7 -20 33 -47 22 -14 40 -33 40 -41 0 -19 27
-32 72 -33 l37 -1 -21 34 c-11 20 -17 42 -14 50 7 20 -3 19 -41 -5 l-32 -19
-27 34 c-27 35 -35 40 -47 28z"/>
<path d="M13493 10755 c-23 -22 -31 -65 -13 -65 6 0 10 7 10 15 0 8 9 15 19
15 25 0 32 11 24 38 -7 27 -12 26 -40 -3z"/>
<path d="M11095 10750 c3 -5 8 -10 11 -10 2 0 4 5 4 10 0 6 -5 10 -11 10 -5 0
-7 -4 -4 -10z"/>
<path d="M7691 10704 c-24 -24 -49 -48 -57 -52 -8 -4 -10 -12 -5 -21 7 -10 16
-8 47 12 50 31 83 68 67 74 -7 2 -9 11 -6 19 8 20 3 17 -46 -32z"/>
<path d="M11682 10719 c-13 -10 -43 -24 -65 -30 -23 -6 -44 -15 -47 -19 -3 -4
-38 -5 -77 -1 -40 4 -73 3 -73 -1 0 -15 -55 -8 -80 9 -37 26 -67 27 -80 3 -6
-11 -17 -20 -25 -20 -23 0 -19 -8 26 -51 39 -37 43 -39 59 -24 14 13 28 15 66
8 86 -15 222 20 267 69 13 14 31 29 41 35 10 5 16 17 15 26 -4 14 -7 13 -27
-4z"/>
<path d="M7610 10710 c0 -5 5 -10 10 -10 6 0 10 5 10 10 0 6 -4 10 -10 10 -5
0 -10 -4 -10 -10z"/>
<path d="M13434 10614 c5 -12 2 -15 -10 -10 -61 23 -109 2 -147 -65 -21 -35
-21 -36 -1 -115 14 -60 23 -80 37 -82 16 -3 18 0 12 20 -4 12 -12 26 -17 29
-7 4 -6 8 1 10 13 5 17 90 6 139 -7 31 -6 33 8 21 9 -7 21 -10 27 -6 7 4 14
-2 17 -14 4 -14 13 -21 29 -21 14 0 27 -7 30 -15 12 -29 25 -3 19 36 -7 43 -5
44 63 40 17 -2 32 2 32 7 0 15 -47 34 -69 27 -12 -4 -21 -2 -21 4 0 6 -5 11
-11 11 -6 0 -8 -7 -5 -16z m-4 -47 c0 -7 -9 -18 -20 -25 -16 -10 -20 -10 -20
1 0 14 20 37 32 37 4 0 8 -6 8 -13z"/>
<path d="M8689 10452 l-36 -17 76 -1 c55 0 89 -6 121 -21 67 -30 140 -94 185
-159 22 -33 68 -87 102 -121 34 -34 66 -75 69 -90 9 -32 59 -87 73 -78 15 9
-8 63 -30 70 -10 4 -19 13 -19 20 0 24 -22 64 -39 70 -9 3 -28 24 -43 47 -15
24 -43 59 -62 77 -20 19 -36 41 -36 48 0 7 -4 13 -9 13 -5 0 -31 19 -57 43
-27 24 -57 46 -66 50 -10 3 -18 10 -18 15 0 16 -97 52 -137 52 -21 -1 -54 -8
-74 -18z"/>
<path d="M13374 10379 c-10 -17 13 -36 27 -22 12 12 4 33 -11 33 -5 0 -12 -5
-16 -11z"/>
<path d="M13337 10325 c-7 -16 6 -102 16 -112 10 -9 19 41 15 82 -3 40 -21 57
-31 30z"/>
<path d="M6340 10160 c-35 -71 -61 -133 -58 -136 7 -6 6 -8 83 142 30 58 55
110 55 115 0 29 -23 -6 -80 -121z"/>
<path d="M8455 10210 c-3 -5 -4 -14 -1 -19 9 -13 46 -1 46 15 0 16 -36 19 -45
4z"/>
<path d="M7710 10160 c6 -12 21 -25 33 -29 25 -10 65 -50 51 -52 -5 -1 2 -4
16 -8 28 -9 49 -3 31 9 -8 4 -9 14 -2 32 7 20 6 28 -8 40 -20 17 -64 31 -55
17 3 -5 -6 -9 -20 -9 -14 0 -26 5 -26 10 0 6 -7 10 -15 10 -13 0 -14 -4 -5
-20z"/>
<path d="M8427 10166 c-6 -16 1 -26 19 -26 7 0 10 8 7 20 -6 23 -19 26 -26 6z"/>
<path d="M13290 10139 c0 -5 5 -7 10 -4 6 3 10 8 10 11 0 2 -4 4 -10 4 -5 0
-10 -5 -10 -11z"/>
<path d="M13380 10130 c0 -5 5 -10 11 -10 5 0 7 5 4 10 -3 6 -8 10 -11 10 -2
0 -4 -4 -4 -10z"/>
<path d="M9340 10101 c0 -5 5 -13 10 -16 6 -3 10 -2 10 4 0 5 -4 13 -10 16 -5
3 -10 2 -10 -4z"/>
<path d="M9430 10087 c0 -3 14 -12 30 -21 26 -12 30 -12 30 0 0 8 -6 14 -14
14 -8 0 -21 3 -30 6 -9 3 -16 4 -16 1z"/>
<path d="M7931 10067 c0 -10 -5 -15 -11 -12 -15 9 -12 -27 4 -47 15 -20 41
-25 30 -6 -4 7 -11 28 -15 48 -4 19 -7 27 -8 17z"/>
<path d="M9295 9940 c3 -5 8 -10 11 -10 2 0 4 5 4 10 0 6 -5 10 -11 10 -5 0
-7 -4 -4 -10z"/>
<path d="M8030 9930 c0 -5 -7 -10 -15 -10 -8 0 -15 -7 -15 -15 0 -9 -6 -18
-14 -21 -8 -3 -14 -14 -13 -24 0 -10 6 -16 13 -13 6 2 24 -7 39 -21 15 -14 33
-26 39 -26 7 0 20 -14 30 -30 17 -30 36 -32 36 -4 0 16 16 19 25 5 3 -5 -1
-15 -8 -23 -26 -26 -26 -57 0 -88 14 -17 28 -28 32 -25 5 2 22 -12 39 -31 27
-30 34 -34 52 -24 25 13 25 10 -5 76 -16 35 -29 52 -37 48 -6 -4 -8 -3 -5 3 4
6 1 24 -5 41 -14 35 -78 76 -85 55 -3 -7 -9 -13 -14 -13 -6 0 -6 7 0 19 8 15
5 24 -13 44 -13 14 -26 31 -28 37 -2 6 -13 12 -24 12 -15 2 -20 7 -16 20 2 10
2 18 -2 18 -3 0 -6 -4 -6 -10z m140 -270 c0 -5 -2 -10 -4 -10 -3 0 -8 5 -11
10 -3 6 -1 10 4 10 6 0 11 -4 11 -10z"/>
<path d="M6285 9880 c-3 -5 -1 -10 4 -10 6 0 11 5 11 10 0 6 -2 10 -4 10 -3 0
-8 -4 -11 -10z"/>
<path d="M13270 9854 c0 -8 5 -12 10 -9 6 3 10 10 10 16 0 5 -4 9 -10 9 -5 0
-10 -7 -10 -16z"/>
<path d="M6255 9850 c-3 -5 -1 -10 4 -10 6 0 11 5 11 10 0 6 -2 10 -4 10 -3 0
-8 -4 -11 -10z"/>
<path d="M6663 9835 c-13 -12 -23 -28 -23 -36 1 -10 4 -9 14 4 20 26 28 20 20
-15 -9 -42 -32 -78 -50 -78 -12 0 -15 -7 -14 -35 0 -3 -7 -19 -15 -35 -9 -17
-13 -34 -11 -39 7 -11 -19 -33 -27 -24 -4 3 -7 -1 -7 -10 0 -9 4 -17 9 -17 14
0 0 -93 -17 -112 -8 -10 -19 -18 -24 -18 -4 0 -8 8 -8 18 -1 10 -7 3 -15 -16
-8 -18 -12 -38 -9 -45 3 -8 0 -27 -7 -43 -9 -24 -12 -26 -18 -11 -6 16 -9 14
-29 -12 -12 -17 -22 -35 -22 -41 0 -16 -116 -126 -155 -147 -126 -67 -168 -97
-250 -178 -49 -49 -98 -105 -109 -124 l-19 -34 32 24 c17 12 31 26 31 30 0 5
11 19 24 32 13 13 29 33 35 45 6 12 16 22 22 22 6 0 25 11 43 25 18 14 43 25
54 25 12 0 22 3 22 8 0 4 18 16 40 26 22 11 40 23 40 28 0 4 9 8 20 8 11 0 20
4 20 10 0 16 70 44 81 33 8 -8 7 -13 0 -17 -6 -4 -11 -18 -11 -32 0 -18 -5
-24 -23 -24 -12 0 -28 -9 -35 -20 -7 -11 -21 -20 -31 -20 -10 0 -26 -12 -36
-26 -10 -16 -22 -23 -31 -20 -19 7 -57 -12 -49 -24 3 -5 1 -11 -5 -15 -5 -3
-10 1 -10 9 0 9 -9 16 -20 16 -11 0 -20 -4 -20 -9 0 -5 -13 -14 -28 -20 -28
-12 -112 -110 -112 -130 0 -6 -4 -11 -10 -11 -5 0 -10 -5 -10 -11 0 -6 7 -8
17 -5 14 6 12 2 -5 -17 -12 -13 -22 -27 -22 -33 0 -5 -16 -20 -35 -34 -19 -14
-35 -29 -35 -33 0 -5 9 -2 21 7 16 11 28 12 51 4 35 -12 46 -5 27 19 -12 15
-12 16 4 10 10 -4 20 -7 23 -7 2 0 -4 -16 -13 -35 -11 -23 -22 -34 -31 -30
-19 7 -42 -13 -42 -37 0 -11 -5 -16 -11 -13 -6 4 -13 -2 -16 -14 -3 -12 -9
-21 -14 -21 -5 0 -9 -8 -9 -18 0 -10 -5 -23 -12 -30 -6 -6 -8 -15 -4 -19 4 -4
11 -2 15 5 4 7 15 10 24 6 10 -3 17 -1 17 5 0 6 11 11 25 11 14 0 25 5 25 10
0 6 5 10 10 10 6 0 10 -7 10 -15 0 -19 36 -20 43 -2 3 9 16 12 36 9 24 -3 32
0 37 14 11 36 19 46 53 60 34 14 34 14 17 -5 -17 -18 -17 -22 -2 -36 14 -14
18 -14 46 0 33 17 51 46 32 53 -8 2 -7 11 5 28 11 18 19 22 26 15 19 -19 41
-12 74 27 18 20 33 40 33 44 0 3 15 30 34 58 30 46 33 55 24 82 -8 24 -8 32 3
39 8 5 19 7 24 5 6 -1 18 10 28 26 19 32 22 42 8 33 -6 -3 -9 11 -8 34 0 22 3
38 5 36 3 -2 12 0 21 5 11 6 17 19 15 39 -1 24 3 31 22 35 23 6 34 26 14 26
-5 0 -10 9 -10 20 0 11 5 20 11 20 27 0 35 19 65 175 3 17 15 40 26 52 13 14
19 30 15 43 -3 13 0 20 9 20 8 0 14 7 14 15 0 8 4 15 8 15 4 0 9 15 10 33 2
17 7 33 12 35 6 2 7 15 4 28 -4 14 -2 24 5 24 6 0 14 18 17 40 4 22 13 45 20
51 20 16 17 29 -6 29 -11 0 -20 6 -20 13 0 7 9 20 20 30 13 10 20 12 20 5 0
-9 3 -9 12 0 8 8 8 15 -2 26 -7 9 -16 13 -21 10 -5 -3 -9 6 -9 20 0 14 -4 26
-10 26 -5 0 -10 7 -10 15 0 20 -10 17 -37 -10z m-89 -482 c-5 -5 -12 -12 -16
-18 -4 -6 -8 -2 -8 8 0 9 7 17 17 17 9 0 12 -3 7 -7z m-34 -53 c0 -5 -5 -10
-11 -10 -5 0 -7 5 -4 10 3 6 8 10 11 10 2 0 4 -4 4 -10z m-89 -53 c-16 -16
-26 0 -10 19 9 11 15 12 17 4 2 -6 -1 -17 -7 -23z m9 -50 c0 -7 -6 -21 -13
-31 -13 -18 -14 -18 -14 0 0 17 14 44 23 44 2 0 4 -6 4 -13z m-103 -79 c-3 -8
-6 -5 -6 6 -1 11 2 17 5 13 3 -3 4 -12 1 -19z m-56 -133 c1 -17 -18 -17 -25 0
-4 11 -1 15 10 13 8 -2 15 -7 15 -13z m-126 -435 c-3 -5 -11 -10 -16 -10 -6 0
-7 5 -4 10 3 6 11 10 16 10 6 0 7 -4 4 -10z"/>
<path d="M6237 9793 c-4 -3 -7 -13 -7 -22 1 -13 3 -13 11 2 11 19 8 33 -4 20z"/>
<path d="M8595 9790 c3 -5 8 -10 11 -10 2 0 4 5 4 10 0 6 -5 10 -11 10 -5 0
-7 -4 -4 -10z"/>
<path d="M13242 9788 c-7 -7 -12 -18 -12 -25 0 -8 -7 -16 -15 -19 -15 -6 -22
-44 -7 -44 4 1 18 10 31 20 18 15 21 23 12 33 -8 10 -7 17 1 25 6 6 9 14 7 17
-3 2 -11 -1 -17 -7z"/>
<path d="M8630 9774 c0 -15 116 -134 131 -134 28 0 -33 106 -77 135 -30 19
-54 19 -54 -1z"/>
<path d="M13144 9696 c-11 -23 -10 -24 12 -14 13 6 24 17 24 25 0 22 -24 15
-36 -11z"/>
<path d="M8269 9558 c-11 -20 -8 -26 32 -60 24 -21 55 -38 68 -38 19 0 21 3
12 14 -8 10 -9 16 -1 21 33 20 -17 85 -67 85 -23 0 -36 -6 -44 -22z"/>
<path d="M6087 9563 c-4 -3 -7 -11 -7 -17 0 -6 5 -5 12 2 6 6 9 14 7 17 -3 3
-9 2 -12 -2z"/>
<path d="M13506 9534 c-4 -9 -4 -19 -1 -22 2 -3 7 3 11 12 4 9 4 19 1 22 -2 3
-7 -3 -11 -12z"/>
<path d="M12878 9513 c7 -3 16 -2 19 1 4 3 -2 6 -13 5 -11 0 -14 -3 -6 -6z"/>
<path d="M12720 9502 c0 -14 11 -21 26 -15 21 8 17 23 -6 23 -11 0 -20 -4 -20
-8z"/>
<path d="M6057 9487 c-4 -10 -7 -26 -7 -35 1 -15 2 -15 11 1 6 10 9 25 7 35
-3 16 -4 15 -11 -1z"/>
<path d="M12533 9484 c-8 -20 9 -36 30 -28 21 8 22 30 1 38 -22 8 -24 8 -31
-10z"/>
<path d="M8635 9481 c-7 -12 12 -24 25 -16 11 7 4 25 -10 25 -5 0 -11 -4 -15
-9z"/>
<path d="M6021 9397 c-6 -8 -13 -29 -16 -48 -5 -34 -5 -34 16 9 21 44 21 64 0
39z"/>
<path d="M14034 9373 c3 -4 -3 -12 -16 -19 -19 -10 -22 -19 -19 -59 1 -28 -4
-60 -14 -81 -15 -31 -15 -39 -2 -77 32 -90 40 -155 33 -264 -7 -119 -33 -309
-47 -335 -4 -9 -24 -83 -44 -165 -20 -81 -63 -227 -95 -323 -33 -96 -62 -193
-65 -215 -4 -22 -13 -60 -20 -85 -42 -138 -59 -189 -75 -220 -10 -20 -22 -53
-26 -75 -4 -21 -13 -50 -20 -64 -8 -14 -14 -31 -14 -37 0 -12 -50 -127 -76
-176 -8 -14 -14 -36 -14 -47 0 -12 -4 -21 -9 -21 -11 0 -91 -164 -91 -185 0
-8 -4 -15 -10 -15 -5 0 -13 -12 -16 -27 -4 -16 -10 -32 -14 -38 -8 -11 -50
-86 -108 -195 -19 -36 -38 -69 -42 -75 -4 -5 -29 -64 -55 -130 -25 -66 -62
-152 -80 -190 -19 -39 -47 -107 -64 -152 -16 -45 -34 -90 -40 -100 -26 -50
-59 -121 -66 -143 -4 -14 -29 -70 -55 -125 -26 -55 -57 -124 -70 -152 -13 -29
-27 -53 -32 -53 -4 0 -8 -9 -8 -20 0 -11 -4 -20 -10 -20 -5 0 -10 -5 -10 -10
0 -6 -21 -56 -46 -111 -25 -55 -61 -146 -80 -202 -18 -56 -40 -122 -48 -147
-13 -39 -64 -205 -111 -360 -8 -25 -17 -59 -20 -77 l-6 -31 40 5 c51 7 52 -5
3 -37 -48 -33 -61 -49 -62 -81 0 -32 62 -96 141 -143 64 -38 211 -110 249
-121 14 -4 30 -11 35 -15 11 -8 74 -28 190 -60 44 -12 100 -28 125 -35 146
-42 315 -67 453 -66 129 1 167 6 219 28 88 37 51 147 -72 212 -25 13 -52 30
-61 37 -8 8 -22 14 -31 14 -8 0 -23 9 -33 20 -10 11 -24 20 -30 20 -7 0 -18 7
-25 15 -7 8 -29 15 -49 15 -20 0 -45 7 -55 15 -11 8 -27 15 -37 15 -9 0 -27 8
-40 18 -36 27 -92 43 -126 36 -18 -3 -33 -1 -37 5 -4 6 -16 11 -26 11 -11 0
-42 13 -70 30 -47 28 -55 29 -123 24 -59 -5 -80 -3 -107 11 -28 15 -31 19 -19
29 8 6 15 25 15 41 1 17 5 38 9 48 6 15 1 17 -35 17 -33 0 -48 -6 -67 -26 -13
-14 -30 -23 -38 -20 -10 3 -16 -5 -21 -29 -7 -38 -29 -50 -65 -37 -14 6 -34 6
-47 1 -34 -13 -63 6 -58 36 6 32 -8 40 -30 18 -17 -17 -17 -16 -10 12 20 85
50 173 58 169 4 -3 8 -1 8 5 0 5 -4 12 -9 15 -10 7 -2 54 10 62 5 3 9 27 9 53
0 45 20 104 40 116 4 3 6 14 3 25 -4 14 0 20 10 20 10 0 20 15 27 40 6 21 17
46 25 54 8 8 15 19 15 25 0 6 4 11 9 11 9 0 22 28 26 55 8 48 20 59 57 56 12
-1 18 9 23 39 4 22 15 46 25 53 11 7 24 35 31 63 22 92 25 99 46 102 16 2 22
12 25 43 2 27 0 39 -10 39 -10 0 -10 5 -2 20 7 12 16 17 27 13 10 -4 14 -2 9
5 -3 6 -2 13 4 17 5 3 10 16 10 29 0 13 9 31 21 42 17 15 20 27 16 58 -5 32
-1 42 19 61 18 17 24 33 24 64 0 27 10 59 30 94 33 59 38 82 15 73 -11 -4 -15
2 -15 20 0 20 4 24 19 19 26 -8 51 4 51 25 0 10 6 22 13 28 7 6 14 23 15 38 2
29 28 64 46 64 7 0 20 25 31 55 10 30 22 55 27 55 5 0 6 5 3 11 -4 6 2 13 14
16 12 3 25 19 31 39 7 19 16 34 20 34 5 0 14 19 20 42 7 22 18 47 26 55 8 8
14 22 14 31 1 25 27 55 50 59 22 3 23 -3 20 -89 -1 -37 2 -48 14 -48 12 0 14
9 10 40 -3 25 1 51 10 68 15 28 28 64 26 71 -3 8 25 21 45 21 18 0 20 6 18 58
-1 42 3 63 17 79 9 12 19 20 22 18 3 -4 2 45 -2 55 -1 3 -2 9 -1 13 1 5 -4 5
-10 1 -27 -16 0 23 29 42 17 12 28 24 25 28 -11 11 -4 79 11 95 8 9 15 18 15
21 0 3 4 18 10 33 6 16 11 33 11 38 0 5 5 9 10 9 7 0 7 7 0 21 -9 16 -8 26 5
46 11 17 14 28 7 35 -7 7 -5 25 6 56 15 44 16 45 25 21 l10 -24 5 23 c2 13 -1
36 -6 52 -8 21 -7 33 3 47 8 10 15 35 15 55 0 20 4 39 9 42 8 5 27 66 35 111
2 11 10 37 20 57 9 21 16 44 16 53 0 8 6 15 14 15 11 0 13 20 10 94 -3 75 0
97 12 107 9 7 24 29 34 50 11 20 28 39 39 42 14 3 18 11 14 26 -6 25 -16 27
-33 6 -10 -12 -16 -13 -27 -4 -18 16 -8 46 28 84 16 17 29 37 29 44 0 7 4 10
9 6 5 -3 13 4 16 16 5 14 13 19 25 16 12 -3 19 1 19 12 2 90 13 108 53 89 22
-11 32 6 13 22 -20 17 -19 56 2 64 14 6 15 9 4 16 -11 6 -8 15 17 40 38 37 38
40 12 40 -13 0 -28 -12 -38 -30 -21 -37 -32 -38 -32 -2 0 15 -5 33 -12 40 -9
9 -9 12 0 12 17 0 9 35 -12 59 -16 18 -17 25 -7 49 8 20 11 66 8 138 -6 124
-7 134 -19 134 -4 0 -7 3 -6 8 0 4 -2 15 -7 25 -4 10 -5 38 -2 63 4 40 2 47
-20 61 -21 14 -24 22 -20 49 7 42 -3 114 -16 114 -6 0 -7 -3 -3 -7z m18 -848
c-6 -34 -12 -32 -12 6 0 16 4 28 9 25 4 -3 6 -17 3 -31z m5 -57 c-3 -8 -6 -5
-6 6 -1 11 2 17 5 13 3 -3 4 -12 1 -19z m-507 -1648 c0 -5 -2 -10 -4 -10 -3 0
-8 5 -11 10 -3 6 -1 10 4 10 6 0 11 -4 11 -10z m-513 -924 c-11 -12 -17 -12
-19 -4 -6 17 15 38 26 28 5 -5 2 -15 -7 -24z m-124 -276 c3 -14 1 -20 -6 -17
-7 2 -14 14 -15 26 -4 28 13 20 21 -9z"/>
<path d="M5905 9139 c-4 -12 -20 -40 -36 -63 -16 -22 -50 -71 -75 -108 -25
-37 -76 -95 -115 -129 -38 -34 -68 -64 -65 -66 15 -15 124 80 191 167 47 61
131 220 116 220 -5 0 -13 -10 -16 -21z"/>
<path d="M6616 9116 c-9 -19 -16 -39 -16 -45 0 -7 -7 -23 -16 -36 -9 -13 -14
-29 -12 -36 4 -11 35 45 62 114 19 46 4 49 -18 3z"/>
<path d="M7241 9076 c-6 -7 -9 -20 -5 -29 3 -9 -2 -19 -13 -25 -10 -6 -29 -31
-42 -57 -13 -25 -33 -50 -45 -55 -21 -7 -186 -165 -186 -177 0 -3 -10 -16 -22
-29 -61 -62 -88 -105 -88 -138 0 -19 -7 -27 -26 -32 -17 -4 -30 -19 -41 -45
-8 -22 -20 -39 -25 -39 -6 0 -8 -6 -5 -14 4 -9 -10 -31 -32 -53 -20 -21 -70
-94 -110 -163 -40 -69 -76 -132 -81 -140 -5 -8 -26 -44 -46 -79 -21 -35 -59
-91 -85 -125 -112 -144 -153 -185 -234 -232 -44 -26 -90 -58 -103 -71 -13 -13
-31 -23 -42 -23 -10 0 -21 -4 -24 -9 -3 -5 -25 -13 -48 -19 -51 -13 -179 -71
-158 -72 10 0 11 -3 3 -11 -7 -7 -17 -8 -30 -1 -14 8 -30 5 -65 -13 -66 -33
-87 -58 -99 -116 -12 -53 -9 -232 3 -245 5 -4 24 10 44 30 20 21 59 51 85 68
27 16 49 33 49 37 0 18 84 89 199 167 147 100 192 134 284 216 88 78 210 243
295 398 64 119 185 312 218 350 27 31 141 241 150 275 3 13 12 29 20 36 8 6
14 17 14 23 0 14 77 94 238 249 67 65 122 124 122 131 0 8 -7 20 -16 27 -14
11 -18 11 -29 -4 -17 -24 -28 -21 -15 3 12 23 8 26 -9 6z"/>
<path d="M14213 9017 c-37 -17 -27 -39 13 -28 14 4 19 11 15 22 -5 13 -11 14
-28 6z"/>
<path d="M7294 8963 c-15 -21 -57 -70 -92 -111 -35 -40 -61 -76 -58 -80 10
-10 196 190 196 210 0 28 -15 21 -46 -19z"/>
<path d="M6460 8968 c0 -19 2 -20 10 -8 13 19 13 30 0 30 -5 0 -10 -10 -10
-22z"/>
<path d="M6531 8918 c-23 -37 -81 -158 -81 -169 0 -20 27 10 40 44 7 18 23 53
37 80 26 50 28 84 4 45z"/>
<path d="M7429 8817 c-25 -22 -52 -58 -123 -168 -20 -31 -71 -90 -113 -130
-42 -41 -86 -85 -97 -98 -12 -13 -39 -44 -61 -70 -23 -25 -49 -57 -58 -71 -10
-14 -31 -43 -48 -65 -91 -122 -198 -299 -318 -525 -84 -158 -127 -214 -298
-390 -62 -63 -122 -128 -134 -145 -64 -86 -187 -189 -213 -179 -20 8 -47 -23
-39 -43 3 -8 2 -13 -3 -12 -25 4 -41 -4 -55 -30 -9 -16 -29 -31 -45 -35 -15
-4 -41 -17 -57 -28 -16 -11 -39 -20 -53 -20 -14 0 -24 -6 -24 -15 0 -7 -6 -16
-14 -19 -8 -3 -17 -15 -20 -27 -3 -12 -17 -35 -31 -51 -15 -18 -25 -41 -25
-60 0 -17 -4 -46 -9 -63 -10 -33 -3 -183 8 -183 3 0 17 19 31 42 25 40 67 99
93 128 7 8 30 38 50 67 21 28 42 53 47 55 34 11 283 259 395 393 68 80 181
208 241 270 34 37 96 124 141 200 44 73 93 169 93 179 0 32 199 350 303 483
17 22 52 67 77 100 24 32 76 92 116 133 150 157 184 195 184 205 1 6 25 30 54
54 68 55 83 82 68 116 -14 31 -29 31 -63 2z"/>
<path d="M9325 8770 c3 -5 15 -10 26 -10 11 0 17 5 14 10 -3 6 -15 10 -26 10
-11 0 -17 -4 -14 -10z"/>
<path d="M14225 8770 c-16 -7 -17 -9 -3 -9 9 -1 20 4 23 9 7 11 7 11 -20 0z"/>
<path d="M6423 8703 c-37 -86 -226 -294 -295 -327 -21 -10 -38 -22 -38 -27 0
-5 -6 -9 -14 -9 -19 0 -29 -17 -20 -32 5 -8 10 -7 18 3 6 8 32 24 59 36 26 13
47 27 47 33 0 5 5 10 11 10 41 0 259 277 259 330 0 20 -16 10 -27 -17z"/>
<path d="M9430 8710 c0 -3 -19 -16 -42 -28 -48 -25 -148 -53 -148 -41 0 4 5 9
10 11 6 2 -3 17 -21 33 -18 17 -29 25 -26 19 7 -12 -36 -29 -60 -25 -8 1 -13
-8 -13 -22 0 -12 -5 -28 -12 -35 -9 -9 -8 -17 2 -37 12 -22 11 -27 -5 -45 -22
-24 -33 -25 -57 -3 -17 15 -18 15 -18 -8 0 -27 -25 -69 -41 -69 -6 0 -24 -13
-42 -30 -18 -16 -36 -30 -41 -30 -6 0 -34 -25 -63 -55 -29 -30 -57 -55 -61
-55 -4 0 -34 -32 -67 -70 -33 -39 -66 -70 -72 -70 -7 0 -19 -12 -27 -27 -8
-16 -40 -57 -71 -93 -31 -36 -59 -77 -62 -92 -3 -15 -11 -33 -19 -39 -7 -6
-16 -27 -20 -48 -4 -20 -13 -48 -20 -62 -12 -23 -11 -29 5 -44 11 -9 25 -17
33 -19 7 -1 18 -5 24 -9 21 -12 167 33 264 82 86 43 114 60 200 118 30 20 143
105 150 113 3 3 37 30 75 61 135 108 375 368 375 405 0 7 3 14 8 16 11 5 50
90 57 126 6 27 2 39 -16 58 -21 23 -29 24 -101 22 -43 -2 -78 -5 -78 -8z"/>
<path d="M7493 8633 c-35 -36 -63 -68 -63 -71 0 -3 -49 -55 -108 -116 -129
-133 -265 -298 -357 -435 -38 -56 -72 -101 -77 -101 -4 0 -8 -10 -8 -22 0 -12
-8 -31 -18 -42 -10 -12 -46 -68 -79 -126 -33 -58 -70 -121 -81 -140 -12 -19
-35 -61 -51 -92 -42 -81 -117 -196 -160 -244 -20 -23 -54 -64 -76 -93 -22 -28
-51 -63 -65 -79 -14 -16 -32 -39 -40 -51 -48 -73 -145 -181 -164 -181 -4 0
-41 -34 -81 -75 -49 -51 -78 -73 -88 -69 -9 3 -29 -4 -45 -16 -16 -12 -36 -22
-45 -24 -9 -1 -25 -10 -34 -19 -51 -47 -64 -57 -72 -57 -17 0 -23 -20 -11 -35
9 -11 9 -15 1 -15 -6 0 -11 5 -11 12 0 9 -3 9 -12 0 -10 -10 -10 -17 0 -32 6
-10 8 -22 3 -24 -5 -3 -11 1 -15 9 -7 19 -26 19 -26 0 0 -8 5 -15 10 -15 6 0
10 -10 10 -22 -1 -22 -1 -22 -15 -4 -7 10 -18 15 -24 11 -14 -8 -14 -32 0 -37
18 -6 -2 -40 -22 -35 -12 3 -27 -7 -46 -32 l-28 -36 0 -369 0 -369 86 2 c114
3 183 26 187 64 2 16 9 27 18 27 8 0 17 6 20 14 3 8 11 13 19 10 7 -3 15 5 19
18 10 40 7 49 -23 59 -41 15 -39 49 4 49 34 0 73 18 125 58 19 15 41 26 48 24
10 -2 10 1 1 16 -10 16 -8 26 9 54 12 20 22 43 22 52 0 9 7 19 15 22 8 4 15
11 15 16 0 5 10 18 23 29 l22 19 -30 -7 c-31 -6 -54 -28 -55 -50 0 -7 -5 -13
-12 -13 -6 0 -19 -7 -28 -15 -20 -18 -140 -32 -140 -17 0 11 23 22 47 22 8 0
28 9 43 20 21 15 27 26 23 41 -5 19 -3 21 20 17 21 -4 27 -1 27 12 0 22 49 80
68 80 19 0 72 42 72 56 0 7 16 25 35 40 20 15 35 35 35 47 0 11 14 32 32 47
22 18 29 32 25 44 -9 23 -30 11 -104 -59 -32 -31 -73 -65 -92 -76 l-34 -20 44
51 c24 28 51 64 60 80 9 16 21 36 28 43 15 19 3 28 -25 21 -24 -6 -34 9 -14
21 6 3 10 14 10 23 0 10 23 40 50 67 28 28 63 70 80 95 16 25 50 61 75 80 25
18 45 37 45 42 0 4 6 8 13 8 15 0 77 74 77 91 0 7 8 21 17 31 14 15 15 23 6
38 -10 15 -8 19 10 25 19 6 19 8 5 12 -23 6 -23 15 2 31 17 10 20 10 20 -5 0
-21 70 58 87 98 13 31 4 44 -32 51 -18 3 -20 -2 -17 -48 2 -39 -1 -53 -12 -57
-9 -4 -19 1 -24 10 -12 20 -42 10 -49 -15 -2 -9 -21 -25 -42 -35 -21 -9 -42
-26 -47 -37 -6 -14 -13 -17 -23 -11 -11 7 -1 27 49 93 34 45 75 97 90 113 21
24 88 115 132 179 12 18 20 -1 9 -23 -32 -61 -31 -61 -15 -54 8 3 21 -2 29
-13 13 -18 14 -18 20 -1 4 9 13 17 21 17 13 0 18 23 15 62 -1 9 3 19 9 23 5 3
10 26 10 49 0 36 5 47 25 60 14 9 25 23 25 32 0 8 6 17 14 20 8 3 30 29 49 57
42 63 160 186 205 212 17 11 32 23 32 28 0 5 9 7 21 4 27 -7 69 36 69 69 0 19
5 24 25 24 20 0 25 5 25 23 0 29 23 51 72 66 20 7 44 23 52 37 9 13 23 24 31
24 8 0 36 19 63 43 27 23 70 54 96 70 29 17 52 39 61 60 8 17 14 28 15 23 0
-14 40 25 40 39 0 7 9 15 20 18 43 11 20 58 -107 219 -108 135 -102 128 -116
127 -7 0 -40 -30 -74 -66z m-1023 -1646 c0 -1 -9 -20 -20 -42 -12 -23 -17 -47
-14 -60 6 -17 5 -18 -8 -7 -9 7 -23 10 -32 6 -24 -9 -20 11 9 42 13 14 27 35
30 45 4 11 13 19 21 19 8 0 14 -1 14 -3z m-108 -179 c-6 -6 -16 -7 -22 -3 -9
6 -9 9 1 16 17 10 34 0 21 -13z m-412 -568 c-8 -5 -17 -7 -19 -4 -3 3 1 9 9
14 8 5 17 7 19 4 3 -3 -1 -9 -9 -14z m-200 -520 c0 -5 -7 -10 -16 -10 -8 0
-12 5 -9 10 3 6 10 10 16 10 5 0 9 -4 9 -10z"/>
<path d="M5780 8670 c0 -22 7 -25 29 -11 16 10 6 31 -15 31 -8 0 -14 -9 -14
-20z"/>
<path d="M5756 8651 c-4 -7 -5 -15 -2 -18 9 -9 19 4 14 18 -4 11 -6 11 -12 0z"/>
<path d="M5797 8603 c-12 -11 -8 -23 8 -23 8 0 15 7 15 15 0 16 -12 20 -23 8z"/>
<path d="M6210 8580 c0 -5 5 -10 10 -10 6 0 10 5 10 10 0 6 -4 10 -10 10 -5 0
-10 -4 -10 -10z"/>
<path d="M6927 8503 l-17 -38 25 30 c26 31 31 45 17 45 -5 0 -16 -17 -25 -37z"/>
<path d="M6072 8493 c2 -10 10 -18 18 -18 22 0 18 29 -3 33 -14 3 -18 -1 -15
-15z"/>
<path d="M5985 8450 c-3 -5 -1 -10 4 -10 6 0 11 5 11 10 0 6 -2 10 -4 10 -3 0
-8 -4 -11 -10z"/>
<path d="M6864 8418 c-35 -52 -47 -78 -34 -78 10 0 74 109 68 116 -3 2 -18
-15 -34 -38z"/>
<path d="M5735 8410 c-3 -5 -1 -10 4 -10 6 0 11 5 11 10 0 6 -2 10 -4 10 -3 0
-8 -4 -11 -10z"/>
<path d="M14127 8380 c3 -11 7 -20 9 -20 2 0 4 9 4 20 0 11 -4 20 -9 20 -5 0
-7 -9 -4 -20z"/>
<path d="M5970 8313 c-58 -15 -100 -37 -100 -53 0 -6 9 -10 20 -10 11 0 20 4
20 9 0 5 15 12 33 15 17 4 44 9 59 12 26 6 45 29 30 37 -4 3 -32 -2 -62 -10z"/>
<path d="M5795 8246 c-17 -7 -53 -16 -80 -20 -28 -4 -58 -15 -68 -24 -18 -16
-18 -17 5 -23 13 -3 30 0 40 8 9 8 36 17 60 20 24 3 46 12 51 19 4 7 14 11 22
8 21 -8 41 6 24 17 -18 11 -18 11 -54 -5z"/>
<path d="M14025 8091 c-12 -12 -7 -101 5 -101 4 0 10 17 12 38 6 44 -3 77 -17
63z"/>
<path d="M6640 8065 c-6 -8 -10 -19 -8 -26 2 -6 9 0 16 15 13 29 10 33 -8 11z"/>
<path d="M6543 7909 c-67 -114 -157 -239 -224 -310 -62 -65 -203 -179 -320
-259 -95 -64 -162 -118 -336 -269 -70 -61 -73 -65 -73 -107 0 -24 4 -44 9 -44
4 0 35 28 67 63 84 88 254 244 359 328 178 142 290 239 310 265 11 15 29 38
40 51 25 28 69 92 141 203 68 105 96 158 92 172 -3 7 -32 -35 -65 -93z"/>
<path d="M5860 7600 c0 -13 30 -13 50 0 11 7 7 10 -17 10 -18 0 -33 -4 -33
-10z"/>
<path d="M6896 7495 c-11 -8 -16 -18 -12 -22 3 -4 16 3 29 15 24 25 12 29 -17
7z"/>
<path d="M11560 7313 c-80 -14 -226 -57 -248 -72 -15 -10 -65 -41 -111 -67
-68 -39 -118 -82 -252 -214 -92 -91 -170 -176 -174 -189 -4 -13 -22 -40 -40
-60 -17 -20 -40 -53 -50 -74 -10 -21 -37 -54 -61 -74 -24 -19 -44 -44 -44 -54
0 -10 -9 -24 -20 -31 -11 -7 -20 -22 -20 -33 -1 -26 -36 -67 -77 -91 -18 -10
-33 -25 -33 -32 0 -8 -17 -30 -37 -49 -20 -19 -44 -49 -52 -66 -9 -18 -33 -41
-53 -52 -20 -11 -54 -44 -75 -72 -21 -29 -81 -112 -133 -184 -141 -196 -132
-186 -164 -166 -14 10 -26 26 -26 37 0 27 -36 27 -43 0 -4 -14 2 -24 16 -32
12 -6 27 -18 33 -26 6 -8 16 -12 22 -8 18 11 14 -7 -14 -59 -18 -35 -22 -51
-14 -59 8 -8 414 -12 1428 -14 779 -2 1426 -1 1437 2 13 3 28 23 39 48 10 24
34 76 52 116 19 41 34 76 34 78 0 2 29 66 64 141 35 76 69 156 76 178 7 22 26
69 42 105 41 88 98 232 98 247 0 17 -31 53 -45 53 -6 0 -29 15 -51 33 -21 18
-64 49 -94 68 -53 35 -118 77 -166 109 -12 8 -44 28 -70 44 -27 16 -125 81
-219 145 -417 284 -586 358 -855 374 -41 3 -86 3 -100 0z"/>
<path d="M6728 7250 c-23 -21 -23 -33 0 -53 21 -19 34 -13 25 11 -4 9 -2 13 4
9 10 -6 23 13 23 33 0 16 -36 16 -52 0z"/>
<path d="M6462 6668 c-15 -15 -16 -38 -2 -38 12 0 23 25 18 40 -2 7 -7 7 -16
-2z"/>
<path d="M13449 6572 c-1 -4 -1 -11 0 -15 1 -4 -4 -18 -11 -30 -7 -12 -14 -33
-15 -47 -1 -14 -11 -32 -21 -40 -24 -20 -32 -150 -9 -150 15 0 40 23 33 31 -2
2 -6 21 -9 42 -4 28 -2 37 9 37 8 0 19 11 26 25 6 13 14 22 19 20 4 -3 5 3 2
14 -3 10 -1 21 4 24 14 9 3 85 -13 91 -8 3 -15 2 -15 -2z"/>
<path d="M6360 6490 c0 -5 5 -10 10 -10 6 0 10 5 10 10 0 6 -4 10 -10 10 -5 0
-10 -4 -10 -10z"/>
<path d="M10270 6381 c0 -12 5 -21 10 -21 6 0 10 6 10 14 0 8 -4 18 -10 21 -5
3 -10 -3 -10 -14z"/>
<path d="M13350 6269 c0 -5 5 -7 10 -4 6 3 10 8 10 11 0 2 -4 4 -10 4 -5 0
-10 -5 -10 -11z"/>
<path d="M13345 6200 c3 -4 -4 -10 -15 -13 -12 -3 -20 -14 -20 -26 0 -11 -9
-36 -20 -56 -13 -23 -18 -45 -14 -60 4 -14 0 -33 -10 -47 -9 -13 -16 -43 -16
-69 0 -25 -7 -60 -16 -78 -12 -24 -13 -35 -4 -46 9 -10 7 -15 -8 -19 -29 -9
-34 -46 -14 -85 19 -36 40 -52 39 -29 -1 32 4 48 16 48 19 0 36 33 43 87 3 26
10 58 15 71 12 32 11 72 -2 72 -6 0 -9 6 -6 14 6 16 -16 40 -26 29 -4 -3 -7
-2 -7 4 0 6 9 13 20 16 14 4 20 0 20 -11 0 -12 5 -10 22 8 16 17 22 35 21 65
0 22 6 49 13 60 21 29 17 49 -11 62 -14 6 -23 8 -20 3z"/>
<path d="M14442 6093 c-6 -27 -23 -97 -37 -158 -14 -60 -29 -126 -34 -145 -20
-72 -41 -176 -41 -198 0 -22 3 -23 68 -20 l67 3 3 274 c1 151 -1 278 -6 283
-4 4 -13 -13 -20 -39z"/>
<path d="M13340 5900 c0 -6 7 -10 15 -10 8 0 15 2 15 4 0 2 -7 6 -15 10 -8 3
-15 1 -15 -4z"/>
<path d="M9820 5720 c0 -5 7 -10 15 -10 8 0 15 5 15 10 0 6 -7 10 -15 10 -8 0
-15 -4 -15 -10z"/>
<path d="M5939 5658 c12 -32 31 -34 31 -4 0 19 -5 26 -20 26 -16 0 -18 -4 -11
-22z"/>
<path d="M9770 5646 c-5 -14 -15 -26 -22 -27 -7 0 1 -5 17 -10 43 -13 55 -6
46 27 -10 37 -29 41 -41 10z"/>
<path d="M12640 4911 c0 -5 5 -13 10 -16 6 -3 10 -2 10 4 0 5 -4 13 -10 16 -5
3 -10 2 -10 -4z"/>
<path d="M12617 4803 c-12 -11 -8 -48 8 -69 13 -18 14 -15 15 29 0 44 -7 56
-23 40z"/>
<path d="M12818 4673 c7 -3 16 -2 19 1 4 3 -2 6 -13 5 -11 0 -14 -3 -6 -6z"/>
</g>
</svg>
